<?xml version="1.0" encoding="utf-8"?>
<!-- Generator: Adobe Illustrator 26.0.1, SVG Export Plug-In . SVG Version: 6.00 Build 0)  -->
<svg version="1.1" id="Layer_1" xmlns="http://www.w3.org/2000/svg" xmlns:xlink="http://www.w3.org/1999/xlink" x="0px" y="0px"
	 viewBox="0 0 201 202" style="enable-background:new 0 0 201 202;" xml:space="preserve">
<style type="text/css">
	.st0{font-family:'Inter-Bold';}
	.st1{font-size:13px;}
	.st2{fill:none;stroke:#000000;stroke-width:3;stroke-linecap:round;stroke-linejoin:round;}
</style>
<g>
	<path d="M159.6,46l8.2-6.9l1.2,1.5l-3.5,2.9l3.2,3.8l3.5-2.9l1.2,1.5l-8.2,6.9l-1.2-1.5l3.5-2.9l-3.2-3.8l-3.5,2.9L159.6,46z"/>
	<path d="M176.1,49.7l-8.8,6.1l-1.1-1.6l8.8-6.1L176.1,49.7z"/>
	<path d="M168.3,57.2l9.3-5.4l2,3.5c0.4,0.7,0.6,1.4,0.7,2s-0.1,1.2-0.4,1.7c-0.3,0.5-0.7,0.9-1.3,1.3c-0.6,0.3-1.2,0.5-1.8,0.5
		c-0.6,0-1.1-0.2-1.7-0.5c-0.5-0.4-1-0.9-1.4-1.6l-1.4-2.5l1.4-0.8l1.3,2.2c0.2,0.4,0.5,0.7,0.8,0.9c0.3,0.2,0.6,0.3,0.9,0.3
		c0.3,0,0.6-0.1,0.9-0.3c0.3-0.2,0.6-0.4,0.7-0.7c0.2-0.3,0.2-0.6,0.2-0.9c0-0.3-0.2-0.7-0.4-1.1l-0.9-1.5l-7.9,4.6L168.3,57.2z
		 M175.3,59.5l-2.9,4.7l-1.1-1.9l2.9-4.7L175.3,59.5z"/>
	<path d="M172.8,65l9.8-4.4l2.8,6.4l-1.5,0.7l-2.1-4.6l-2.7,1.2l1.9,4.3l-1.5,0.7l-1.9-4.3l-2.7,1.2l2.1,4.6l-1.5,0.7L172.8,65z"/>
	<path d="M177.6,77.2l-0.5-2l11.3,0.9l0.6,2.3l-9.4,6.4l-0.5-2l7.5-5l0-0.1L177.6,77.2z M181.7,76.2l1.5,5.5l-1.5,0.4l-1.5-5.5
		L181.7,76.2z"/>
	<path d="M188.3,97.4l-0.2-2c0.3-0.1,0.6-0.2,0.8-0.4s0.4-0.4,0.6-0.6c0.2-0.2,0.3-0.5,0.3-0.8c0.1-0.3,0.1-0.6,0-0.9
		c-0.1-0.6-0.2-1.1-0.6-1.5c-0.3-0.4-0.8-0.7-1.4-0.9c-0.6-0.2-1.3-0.3-2.1-0.2c-0.8,0.1-1.5,0.3-2,0.6c-0.5,0.3-0.9,0.7-1.2,1.2
		s-0.3,1-0.3,1.6c0,0.3,0.1,0.6,0.2,0.9s0.3,0.5,0.4,0.7c0.2,0.2,0.4,0.4,0.7,0.5s0.5,0.2,0.9,0.2l0.2,2c-0.5,0-1-0.1-1.5-0.3
		s-0.9-0.5-1.3-0.8c-0.4-0.4-0.7-0.8-0.9-1.3c-0.2-0.5-0.4-1.1-0.4-1.7c-0.1-0.9,0.1-1.8,0.4-2.6c0.4-0.8,0.9-1.4,1.7-1.9
		c0.8-0.5,1.7-0.8,2.9-0.9c1.2-0.1,2.2,0,3,0.4c0.9,0.4,1.5,0.9,2,1.6s0.8,1.5,0.9,2.4c0.1,0.6,0,1.2-0.1,1.7
		c-0.1,0.5-0.3,1-0.6,1.4c-0.3,0.4-0.6,0.8-1.1,1.1C189.4,97.1,188.9,97.3,188.3,97.4z"/>
	<path d="M181.2,99.3l10.7,0.2l-0.1,7l-1.6,0l0.1-5l-2.9-0.1l-0.1,4.7l-1.6,0l0.1-4.7l-2.9-0.1l-0.1,5.1l-1.6,0L181.2,99.3z"/>
	<path d="M185.1,113.8l-5.2,2l0.3-2.2l5.2-2L185.1,113.8z M181,107.7l10.6,1.4l-0.5,4c-0.1,0.8-0.3,1.5-0.7,2
		c-0.4,0.5-0.8,0.9-1.4,1.1c-0.5,0.2-1.2,0.3-1.8,0.2c-0.7-0.1-1.3-0.3-1.7-0.7c-0.5-0.4-0.8-0.8-1-1.4c-0.2-0.6-0.2-1.3-0.1-2.1
		l0.4-2.8l1.6,0.2l-0.3,2.6c-0.1,0.5,0,0.9,0,1.2c0.1,0.3,0.3,0.6,0.5,0.8s0.5,0.3,0.9,0.3c0.4,0,0.7,0,1-0.1
		c0.3-0.1,0.5-0.3,0.7-0.6s0.3-0.7,0.4-1.2l0.2-1.8l-9-1.2L181,107.7z"/>
	<path d="M188.7,118.3l1.6,0.4l-2,8.3l-1.6-0.4l0.8-3.2l-8.8-2.2l0.5-1.9l8.8,2.2L188.7,118.3z"/>
	<path d="M186.9,130.8l-10.2-3.4l0.6-1.8l10.2,3.4L186.9,130.8z"/>
	<path d="M176.2,129l9.9,4.1l-2.6,6.3l-1.5-0.6l1.9-4.5l-2.7-1.1l-1.7,4.1l-1.5-0.6l1.7-4.1l-4.2-1.8L176.2,129z"/>
	<path d="M181.6,143.2l-9.6-4.9l0.9-1.7l9.6,4.9L181.6,143.2z"/>
	<path d="M171.3,139.9l9.2,5.6l-3.6,6l-1.4-0.8l2.6-4.3l-2.5-1.5l-2.4,4l-1.4-0.8l2.4-4l-2.5-1.5l-2.6,4.3l-1.4-0.8L171.3,139.9z"/>
	<path d="M164.7,149.9l2.2-2.9l8.5,6.6l-2.3,2.9c-0.7,0.8-1.4,1.4-2.2,1.8c-0.8,0.3-1.7,0.4-2.5,0.3c-0.9-0.2-1.8-0.6-2.6-1.3
		c-0.9-0.7-1.5-1.4-1.9-2.3s-0.5-1.7-0.4-2.5S164,150.7,164.7,149.9z M167,149.6l-1,1.3c-0.5,0.6-0.7,1.2-0.8,1.7
		c-0.1,0.6,0,1.1,0.3,1.6c0.3,0.5,0.7,1.1,1.4,1.6s1.3,0.8,1.8,1c0.6,0.1,1.1,0.1,1.6-0.1s1-0.6,1.4-1.2l1-1.3L167,149.6z"/>
	<path d="M155.6,159.8l2.7-2.5l7.3,7.9l-2.7,2.5c-0.8,0.7-1.6,1.2-2.5,1.4s-1.7,0.2-2.5-0.2c-0.8-0.3-1.6-0.9-2.4-1.7
		c-0.8-0.8-1.3-1.7-1.5-2.5c-0.2-0.9-0.2-1.7,0.1-2.6C154.3,161.4,154.8,160.6,155.6,159.8z M158,159.9l-1.2,1.1
		c-0.5,0.5-0.9,1-1.1,1.6c-0.2,0.5-0.2,1.1,0,1.7c0.2,0.6,0.6,1.2,1.1,1.8c0.6,0.6,1.1,1,1.7,1.2c0.6,0.2,1.1,0.3,1.6,0.1
		s1.1-0.4,1.6-0.9l1.2-1.1L158,159.9z"/>
	<path d="M150.8,164.1l6.3,8.7l-5.6,4.1l-1-1.3l4.1-3l-1.7-2.4l-3.8,2.8l-1-1.3l3.8-2.8l-1.7-2.4l-4.1,3l-1-1.3L150.8,164.1z"/>
	<path d="M142.9,178.7c0.3,0.4,0.6,0.6,1.1,0.6c0.4,0,0.9-0.1,1.4-0.4c0.4-0.2,0.6-0.4,0.8-0.7c0.2-0.3,0.3-0.5,0.3-0.8
		c0-0.3,0-0.5-0.2-0.7c-0.1-0.2-0.3-0.3-0.4-0.4c-0.2-0.1-0.4-0.1-0.6-0.1c-0.2,0-0.4,0-0.7,0c-0.2,0-0.4,0.1-0.7,0.2l-1,0.3
		c-0.4,0.1-0.8,0.2-1.2,0.3s-0.8,0-1.2,0c-0.4-0.1-0.7-0.2-1.1-0.4s-0.6-0.5-0.8-0.9c-0.3-0.5-0.5-1.1-0.4-1.7
		c0-0.6,0.3-1.1,0.6-1.7c0.4-0.5,1-1,1.7-1.4c0.7-0.4,1.4-0.7,2.1-0.8c0.7-0.1,1.3,0,1.8,0.3s1,0.7,1.4,1.3l-1.7,1
		c-0.2-0.3-0.5-0.5-0.8-0.6c-0.3-0.1-0.6-0.1-1-0.1s-0.7,0.2-1,0.4c-0.4,0.2-0.7,0.5-0.9,0.7c-0.2,0.3-0.3,0.5-0.4,0.8
		s0,0.6,0.2,0.8c0.1,0.2,0.3,0.4,0.6,0.5c0.2,0.1,0.5,0.1,0.8,0.1s0.7-0.1,1-0.2l1.2-0.3c0.9-0.2,1.7-0.3,2.3-0.2
		c0.7,0.1,1.2,0.5,1.6,1.2c0.3,0.5,0.4,1.1,0.4,1.7c-0.1,0.6-0.3,1.1-0.7,1.7s-0.9,1-1.5,1.4c-0.7,0.4-1.3,0.6-1.9,0.7
		c-0.6,0.1-1.2,0-1.7-0.3s-0.9-0.6-1.2-1.1L142.9,178.7z"/>
	<path d="M138.9,184l-4.6-9.7l1.8-0.8l4.6,9.7L138.9,184z"/>
	<path d="M128.6,184.4c0.2,0.2,0.4,0.4,0.6,0.6s0.5,0.3,0.7,0.4s0.5,0.1,0.8,0.1c0.3,0,0.6-0.1,0.9-0.2c0.5-0.2,1-0.5,1.3-0.9
		c0.3-0.4,0.5-1,0.6-1.6c0-0.6-0.1-1.3-0.4-2.1c-0.3-0.8-0.6-1.4-1.1-1.8c-0.4-0.4-0.9-0.7-1.4-0.8s-1.1-0.1-1.6,0.1
		c-0.5,0.2-0.9,0.5-1.2,0.8c-0.3,0.3-0.5,0.7-0.6,1.2c-0.1,0.4,0,0.9,0.2,1.4l-0.4,0.1l2.7-1l0.5,1.4l-4.1,1.5l-0.4-1.2
		c-0.3-0.9-0.4-1.7-0.3-2.4c0.1-0.8,0.5-1.4,1-2c0.5-0.6,1.2-1,2-1.3c0.9-0.3,1.8-0.4,2.7-0.3c0.9,0.2,1.6,0.5,2.3,1.2
		c0.7,0.6,1.2,1.5,1.6,2.5c0.3,0.8,0.5,1.6,0.5,2.3c0,0.7-0.1,1.4-0.4,2c-0.2,0.6-0.6,1.1-1.1,1.6c-0.5,0.4-1,0.8-1.7,1
		c-0.6,0.2-1.1,0.3-1.6,0.3c-0.5,0-1.1-0.1-1.5-0.2c-0.5-0.2-0.9-0.4-1.3-0.7c-0.4-0.3-0.7-0.7-1-1.2L128.6,184.4z"/>
	<path d="M116.8,191l-2.4-10.5l1.7-0.4l6.6,6l0.1,0l-1.6-7.1l1.9-0.4l2.4,10.5l-1.7,0.4l-6.6-6l-0.1,0l1.6,7.1L116.8,191z"/>
	<path d="M112.9,180.8l1.2,10.7l-6.9,0.8l-0.2-1.6l5-0.6l-0.3-2.9l-4.6,0.5l-0.2-1.6l4.6-0.5l-0.3-2.9l-5,0.6l-0.2-1.6L112.9,180.8z
		"/>
	<path d="M99,186.5l-2.7-4.8l2.2,0l2.7,4.8L99,186.5z M104.5,181.6l0.2,10.7l-4,0.1c-0.8,0-1.5-0.1-2.1-0.4s-1-0.7-1.3-1.2
		c-0.3-0.5-0.4-1.1-0.5-1.8c0-0.7,0.1-1.3,0.4-1.8c0.3-0.5,0.7-0.9,1.3-1.2c0.6-0.3,1.3-0.4,2.1-0.4l2.9,0l0,1.6l-2.6,0
		c-0.5,0-0.9,0.1-1.2,0.2c-0.3,0.1-0.5,0.3-0.7,0.6c-0.1,0.3-0.2,0.6-0.2,1c0,0.4,0.1,0.7,0.2,1c0.2,0.3,0.4,0.5,0.7,0.6
		c0.3,0.1,0.7,0.2,1.2,0.2l1.8,0l-0.1-9.1L104.5,181.6z"/>
	<path d="M89.1,180.7c0.7,0.1,1.3,0.3,1.8,0.7c0.5,0.3,0.8,0.8,1,1.2c0.2,0.5,0.3,1,0.2,1.6c-0.1,0.4-0.2,0.8-0.4,1.1
		s-0.5,0.6-0.9,0.8c-0.4,0.2-0.8,0.5-1.2,0.7l-2.1,1c-0.3,0.1-0.5,0.3-0.7,0.5c-0.2,0.2-0.3,0.4-0.3,0.7c0,0.2,0,0.5,0.2,0.7
		c0.2,0.2,0.4,0.4,0.7,0.4c0.2,0,0.4,0,0.6-0.1c0.2-0.1,0.3-0.2,0.5-0.4c0.1-0.2,0.2-0.3,0.2-0.5c0-0.2,0-0.5-0.1-0.7
		c-0.1-0.3-0.2-0.5-0.4-0.8c-0.2-0.3-0.4-0.6-0.5-0.9l-4.1-6.6l2,0.3l3.4,5.4c0.3,0.4,0.5,0.8,0.7,1.2c0.2,0.4,0.4,0.8,0.5,1.2
		c0.1,0.4,0.2,0.8,0.1,1.3c-0.1,0.5-0.3,0.9-0.5,1.3c-0.3,0.4-0.7,0.6-1.1,0.8c-0.5,0.2-1,0.2-1.5,0.1c-0.6-0.1-1-0.3-1.4-0.5
		s-0.6-0.6-0.8-1c-0.2-0.4-0.2-0.8-0.1-1.2c0.1-0.5,0.3-0.9,0.6-1.3c0.3-0.4,0.7-0.7,1.2-0.9l2.4-1.2c0.4-0.2,0.7-0.4,0.9-0.7
		c0.2-0.2,0.3-0.4,0.3-0.6c0-0.3,0-0.5-0.1-0.8s-0.3-0.5-0.5-0.6c-0.2-0.2-0.5-0.3-0.9-0.3c-0.4-0.1-0.8,0-1.2,0.1
		c-0.4,0.1-0.8,0.3-1.1,0.6c-0.4,0.3-0.7,0.6-0.9,1c-0.2,0.4-0.4,0.9-0.5,1.4l-1.6-0.2c0.1-0.7,0.3-1.2,0.5-1.7
		c0.2-0.5,0.5-0.9,0.8-1.2c0.3-0.3,0.6-0.5,0.9-0.7c0.1,0,0.2-0.1,0.3-0.1c0.1,0,0.2-0.1,0.3-0.1c0.4-0.3,0.9-0.5,1.4-0.5
		C88.1,180.6,88.6,180.6,89.1,180.7z"/>
	<path d="M76.3,177.9l3.5,1.1l-3.3,10.2l-3.5-1.1c-1-0.3-1.8-0.8-2.4-1.5c-0.6-0.6-1-1.4-1.1-2.3c-0.1-0.9,0-1.9,0.3-2.9
		c0.3-1.1,0.8-1.9,1.5-2.5c0.6-0.6,1.4-1,2.3-1.2S75.2,177.6,76.3,177.9z M77.4,180.1l-1.5-0.5c-0.7-0.2-1.3-0.3-1.9-0.2
		s-1,0.4-1.5,0.8c-0.4,0.4-0.7,1.1-1,1.8c-0.3,0.8-0.3,1.5-0.3,2.1c0.1,0.6,0.3,1.1,0.7,1.5c0.4,0.4,0.9,0.7,1.6,0.9l1.6,0.5
		L77.4,180.1z"/>
	<path d="M70.2,175.8l-4.4,9.8l-6.3-2.9l0.7-1.5l4.6,2.1l1.2-2.7l-4.3-1.9l0.7-1.5l4.3,1.9l1.2-2.7l-4.6-2.1l0.7-1.5L70.2,175.8z"/>
	<path d="M55.8,180.8l2-8.7l-0.1-0.1l-6.7,5.8l-1.8-1.1l8.8-7.2l2.1,1.2l-2.3,11.1L55.8,180.8z"/>
	<path d="M54.1,167l-6.5,8.5l-5.5-4.3l1-1.3l4,3.1l1.8-2.3l-3.7-2.8l1-1.3l3.7,2.8l1.8-2.3l-4-3.1l1-1.3L54.1,167z"/>
	<path d="M47.4,161.8l-7.4,7.8l-1.4-1.3l6.2-6.6l-3.4-3.2l1.1-1.2L47.4,161.8z"/>
	<path d="M31.8,153c0.9-0.7,1.8-1.2,2.7-1.4c0.9-0.2,1.8-0.2,2.6,0.1s1.5,0.8,2.1,1.5c0.6,0.7,1,1.5,1.1,2.3c0.1,0.8,0,1.7-0.3,2.6
		s-1,1.7-1.8,2.4c-0.9,0.7-1.8,1.2-2.7,1.4s-1.8,0.2-2.6-0.1c-0.8-0.3-1.5-0.8-2.1-1.5c-0.6-0.7-1-1.5-1.1-2.3
		c-0.1-0.8,0-1.7,0.3-2.6C30.3,154.5,30.9,153.7,31.8,153z M33.1,154.5c-0.6,0.5-1.1,1.1-1.3,1.6c-0.3,0.6-0.4,1.1-0.3,1.6
		s0.3,1,0.7,1.5c0.4,0.4,0.8,0.7,1.3,0.9c0.5,0.2,1.1,0.1,1.7,0c0.6-0.2,1.2-0.5,1.8-1s1.1-1.1,1.3-1.6c0.3-0.6,0.4-1.1,0.3-1.6
		c-0.1-0.5-0.3-1-0.7-1.5c-0.4-0.4-0.8-0.7-1.3-0.9c-0.5-0.2-1.1-0.1-1.6,0C34.3,153.6,33.7,153.9,33.1,154.5z"/>
	<path d="M35.2,148.5l-8.9,5.9L24,151c-0.5-0.7-0.7-1.3-0.8-2c-0.1-0.6,0.1-1.2,0.4-1.8s0.7-1,1.3-1.4c0.6-0.4,1.2-0.6,1.8-0.6
		s1.2,0.1,1.8,0.4c0.6,0.3,1.1,0.8,1.5,1.5l1.5,2.2l-1.3,0.9l-1.3-2c-0.3-0.4-0.6-0.7-0.9-0.8c-0.3-0.2-0.6-0.2-1-0.2
		s-0.6,0.2-1,0.4c-0.3,0.2-0.6,0.5-0.7,0.7c-0.2,0.3-0.2,0.6-0.2,0.9c0,0.3,0.2,0.7,0.5,1.1l1,1.5l7.6-5L35.2,148.5z"/>
	<path d="M30.4,141l-9.5,4.9l-3.2-6.2l1.4-0.7l2.3,4.5l2.6-1.3l-2.1-4.2l1.4-0.7l2.1,4.2L28,140l-2.3-4.5l1.4-0.7L30.4,141z"/>
	<path d="M26.6,133.5l-10,3.9l-1.4-3.8c-0.3-0.8-0.4-1.5-0.3-2.1s0.3-1.2,0.7-1.6c0.4-0.5,0.9-0.8,1.5-1.1c0.6-0.2,1.3-0.3,1.8-0.2
		c0.6,0.1,1.1,0.4,1.6,0.8c0.5,0.4,0.8,1,1.1,1.8l1,2.7l-1.5,0.6l-0.9-2.4c-0.2-0.4-0.4-0.8-0.6-1c-0.2-0.2-0.5-0.4-0.8-0.4
		s-0.6,0-1,0.1c-0.4,0.1-0.6,0.3-0.8,0.6s-0.3,0.5-0.3,0.9c0,0.3,0.1,0.7,0.2,1.2l0.6,1.7l8.5-3.3L26.6,133.5z M20.1,130.1l3.6-4.2
		l0.8,2l-3.6,4.2L20.1,130.1z"/>
	<path d="M16.3,118.2l1.5-0.4l1.1,4.7l-1.5,0.4L16.3,118.2z"/>
	<path d="M12.3,107c-0.5,0.1-0.8,0.3-1,0.7s-0.3,0.9-0.3,1.4c0,0.4,0.1,0.7,0.3,1c0.1,0.3,0.3,0.5,0.6,0.6s0.5,0.2,0.7,0.2
		c0.2,0,0.4-0.1,0.6-0.2c0.2-0.1,0.3-0.3,0.4-0.5c0.1-0.2,0.2-0.4,0.2-0.6s0.1-0.4,0.1-0.7l0.2-1c0.1-0.4,0.1-0.8,0.3-1.2
		c0.1-0.4,0.3-0.7,0.5-1.1c0.2-0.3,0.5-0.6,0.8-0.8s0.7-0.3,1.2-0.4c0.6-0.1,1.2,0.1,1.7,0.3c0.5,0.3,0.9,0.7,1.2,1.3
		c0.3,0.6,0.5,1.3,0.6,2.2c0.1,0.8,0,1.6-0.2,2.2c-0.2,0.6-0.5,1.1-1,1.5c-0.5,0.4-1,0.6-1.8,0.7l-0.2-1.9c0.4-0.1,0.7-0.2,0.9-0.4
		c0.2-0.2,0.4-0.5,0.5-0.8c0.1-0.3,0.1-0.7,0.1-1.1c0-0.4-0.1-0.8-0.3-1.1s-0.4-0.5-0.6-0.7s-0.5-0.2-0.8-0.2
		c-0.3,0-0.5,0.1-0.7,0.3s-0.3,0.4-0.4,0.7c-0.1,0.3-0.2,0.6-0.2,1l-0.2,1.2c-0.1,0.9-0.4,1.6-0.8,2.2c-0.4,0.6-1,0.9-1.8,0.9
		c-0.6,0.1-1.2-0.1-1.7-0.4s-0.9-0.7-1.2-1.3s-0.5-1.2-0.6-2c-0.1-0.8,0-1.4,0.2-2c0.2-0.6,0.5-1.1,1-1.4c0.4-0.4,1-0.6,1.6-0.7
		L12.3,107z"/>
	<path d="M19.8,103.1l-10.7-0.2l0.1-7l1.6,0l-0.1,5l2.9,0l0.1-4.7l1.6,0l-0.1,4.7l2.9,0l0.1-5.1l1.6,0L19.8,103.1z"/>
	<path d="M15.9,84.6c1.1,0.2,2.1,0.5,2.9,1s1.3,1.2,1.6,2s0.4,1.7,0.3,2.6c-0.1,0.9-0.5,1.7-1,2.4c-0.5,0.7-1.2,1.2-2.1,1.5
		c-0.9,0.3-1.9,0.4-3,0.2c-1.1-0.2-2.1-0.5-2.9-1c-0.8-0.5-1.3-1.2-1.6-2c-0.3-0.8-0.4-1.7-0.3-2.6c0.1-0.9,0.5-1.7,1-2.4
		c0.5-0.7,1.2-1.2,2.1-1.5S14.8,84.4,15.9,84.6z M15.7,86.5c-0.8-0.1-1.5-0.1-2.1,0.1c-0.6,0.2-1.1,0.5-1.4,0.9
		c-0.3,0.4-0.6,0.9-0.6,1.5s0,1.1,0.2,1.6c0.2,0.5,0.6,0.9,1.1,1.2c0.5,0.3,1.2,0.5,2,0.7c0.8,0.1,1.5,0.1,2.1-0.1
		c0.6-0.2,1.1-0.5,1.4-0.9c0.3-0.4,0.6-0.9,0.6-1.5c0.1-0.6,0-1.1-0.2-1.6s-0.6-0.9-1.1-1.2C17.1,86.8,16.5,86.6,15.7,86.5z"/>
	<path d="M22.4,80.7l-10.3-3.1l2-6.7l1.6,0.5l-1.5,4.8l2.8,0.8l1.4-4.5l1.6,0.5l-1.4,4.5l2.8,0.9l1.5-4.9l1.6,0.5L22.4,80.7z"/>
	<path d="M15.6,67l4.5-0.6l0-0.1l-2.7-3.7l0.9-2l3.6,5.2l6.3-1l-0.9,2.1l-4.5,0.6l0,0.1l2.6,3.7l-0.9,2.1L21,68.1l-6.3,0.9L15.6,67z
		"/>
	<path d="M28.7,64l-9.3-5.4l2-3.5c0.4-0.7,0.9-1.2,1.4-1.6c0.5-0.3,1.1-0.5,1.7-0.5c0.6,0,1.2,0.2,1.8,0.5c0.6,0.3,1.1,0.8,1.4,1.3
		c0.3,0.5,0.5,1.1,0.5,1.7c0,0.6-0.2,1.3-0.6,2L26.3,61l-1.4-0.8l1.2-2.1c0.2-0.4,0.4-0.8,0.4-1.2c0-0.4-0.1-0.7-0.3-0.9
		s-0.4-0.5-0.8-0.7c-0.3-0.2-0.7-0.3-1-0.3c-0.3,0-0.6,0.1-0.9,0.3c-0.3,0.2-0.6,0.5-0.8,0.9l-0.9,1.5l7.9,4.5L28.7,64z"/>
	<path d="M33.3,56.3L24.6,50l4.1-5.6l1.3,1l-3,4.1l2.4,1.7l2.8-3.8l1.3,1l-2.8,3.8l2.4,1.7l3-4.1l1.3,1L33.3,56.3z"/>
	<path d="M38.3,49.6l-7.9-7.2l2.7-3c0.6-0.6,1.1-1,1.7-1.2s1.2-0.3,1.7-0.1c0.6,0.1,1.1,0.4,1.6,0.9c0.5,0.5,0.9,1,1,1.5
		c0.2,0.6,0.2,1.1,0,1.7S38.6,43.4,38,44l-1.9,2.1L34.9,45l1.7-1.9c0.3-0.4,0.5-0.7,0.6-1c0.1-0.3,0.1-0.6,0-0.9
		c-0.1-0.3-0.3-0.6-0.6-0.8s-0.6-0.4-0.9-0.5s-0.6,0-0.9,0.1c-0.3,0.1-0.6,0.4-1,0.7L32.8,42l6.7,6.1L38.3,49.6z M38.4,42.2l5.4,1.3
		l-1.5,1.6L37,43.8L38.4,42.2z"/>
	<path d="M38,36.5l-1.1-1.2l6.4-5.7l1.1,1.2L41.9,33l6,6.8l-1.4,1.3l-6-6.8L38,36.5z"/>
	<path d="M55.2,27.9l0.9,1.3l-4,2.7l-0.9-1.3L55.2,27.9z"/>
	<path d="M64.4,20.3c-0.2-0.4-0.6-0.6-1-0.7c-0.4-0.1-0.9,0-1.4,0.3c-0.4,0.2-0.7,0.4-0.9,0.6c-0.2,0.2-0.3,0.5-0.4,0.7
		s0,0.5,0.1,0.7c0.1,0.2,0.2,0.4,0.4,0.5c0.2,0.1,0.4,0.2,0.6,0.2c0.2,0,0.4,0,0.7,0s0.5-0.1,0.7-0.1l1-0.2c0.4-0.1,0.8-0.1,1.2-0.2
		c0.4,0,0.8,0,1.2,0.1c0.4,0.1,0.7,0.3,1,0.5c0.3,0.2,0.6,0.6,0.8,1c0.3,0.6,0.4,1.1,0.3,1.7c-0.1,0.6-0.3,1.1-0.8,1.6
		c-0.4,0.5-1,0.9-1.8,1.3c-0.8,0.4-1.5,0.6-2.1,0.6c-0.7,0-1.3-0.1-1.8-0.4s-1-0.8-1.3-1.4l1.7-0.8c0.2,0.3,0.4,0.6,0.7,0.7
		c0.3,0.1,0.6,0.2,1,0.2s0.7-0.1,1.1-0.3c0.4-0.2,0.7-0.4,0.9-0.7c0.2-0.3,0.4-0.5,0.4-0.8s0-0.6-0.1-0.8c-0.1-0.3-0.3-0.4-0.5-0.5
		c-0.2-0.1-0.5-0.1-0.8-0.1s-0.7,0.1-1.1,0.1l-1.2,0.2c-0.9,0.2-1.7,0.2-2.3,0s-1.2-0.6-1.5-1.3c-0.3-0.6-0.4-1.1-0.2-1.7
		c0.1-0.6,0.4-1.1,0.8-1.6s1-0.9,1.6-1.2c0.7-0.3,1.3-0.5,2-0.5c0.6,0,1.2,0.1,1.7,0.4c0.5,0.3,0.9,0.7,1.1,1.2L64.4,20.3z"/>
	<path d="M71.7,25.6l-2,0.7l0.1-11.4l2.3-0.8l7,8.9l-2,0.7l-5.5-7.1l-0.1,0L71.7,25.6z M70.4,21.6l5.4-1.8l0.5,1.5l-5.4,1.8
		L70.4,21.6z"/>
	<path d="M81.3,22.6l-2,0.4l1.5-11.3l2.3-0.5L89,21l-2,0.4l-4.5-7.8l-0.1,0L81.3,22.6z M80.5,18.5l5.5-1.1l0.3,1.5L80.8,20
		L80.5,18.5z"/>
	<path d="M93.4,20.7L89.7,21l-0.9-10.7l3.7-0.3c1.1-0.1,2,0.1,2.8,0.4c0.8,0.4,1.4,0.9,1.9,1.7c0.5,0.8,0.8,1.7,0.8,2.8
		c0.1,1.1,0,2.1-0.4,2.9s-0.9,1.5-1.6,2S94.4,20.6,93.4,20.7z M91.5,19.1l1.6-0.1c0.7-0.1,1.4-0.2,1.8-0.6s0.8-0.8,1-1.3
		s0.3-1.3,0.2-2.1c-0.1-0.8-0.2-1.5-0.5-2c-0.3-0.5-0.7-0.9-1.2-1.1c-0.5-0.2-1.1-0.3-1.9-0.3l-1.6,0.1L91.5,19.1z"/>
	<path d="M103.5,11.2l0.1-1.6l8.5,0.7l-0.1,1.6l-3.3-0.3l-0.7,9.1l-1.9-0.2l0.7-9.1L103.5,11.2z"/>
	<path d="M112.4,21.2l-2-0.4l5.7-9.9l2.4,0.4l1.8,11.2l-2-0.4l-1.3-8.9l-0.1,0L112.4,21.2z M113.3,17.1l5.6,1l-0.3,1.5l-5.6-1
		L113.3,17.1z"/>
	<path d="M132.6,15.3l-3.3,10.2l-1.6-0.5l-2.6-8.5l-0.1,0l-2.2,7l-1.9-0.6l3.3-10.2l1.7,0.5l2.6,8.5l0.1,0l2.2-7L132.6,15.3z"/>
	<path d="M136.5,16.9l-1,8.8l0.1,0l6.1-6.5l1.9,0.9l-8,8.1l-2.2-1l1.1-11.3L136.5,16.9z"/>
	<path d="M146.8,22.2l-5.3,9.3l-1.7-1l5.3-9.3L146.8,22.2z"/>
	<path d="M143,32.3l6.1-8.8l3.3,2.3c0.7,0.5,1.2,1,1.5,1.5s0.4,1.1,0.4,1.7c-0.1,0.6-0.3,1.2-0.7,1.7c-0.4,0.6-0.8,1-1.4,1.2
		c-0.5,0.3-1.1,0.3-1.7,0.2c-0.6-0.1-1.3-0.4-2-0.8l-2.4-1.6l0.9-1.3l2.1,1.5c0.4,0.3,0.8,0.4,1.1,0.5c0.3,0.1,0.6,0,0.9-0.1
		c0.3-0.1,0.5-0.4,0.7-0.7c0.2-0.3,0.3-0.6,0.4-0.9s0-0.6-0.2-0.9c-0.2-0.3-0.5-0.6-0.9-0.8l-1.5-1l-5.2,7.5L143,32.3z M150.3,31.5
		l-0.6,5.5l-1.8-1.2l0.6-5.5L150.3,31.5z"/>
	<path d="M160.1,39.1l-1.1,1.2l-3.6-3.3l1.1-1.2L160.1,39.1z"/>
</g>
<text class="st0 st1"> </text>
<path class="st2" d="M90.1,82.3h29.2 M119.2,82.3v29.2 M119.2,82.3l-37.5,37.5"/>
</svg>
