<?xml version="1.0" encoding="utf-8"?>
<!-- Generator: Adobe Illustrator 26.0.1, SVG Export Plug-In . SVG Version: 6.00 Build 0)  -->
<svg version="1.1" id="Layer_1" xmlns="http://www.w3.org/2000/svg" xmlns:xlink="http://www.w3.org/1999/xlink" x="0px" y="0px"
	 viewBox="0 0 201 202" style="enable-background:new 0 0 201 202;" xml:space="preserve">
<style type="text/css">
	.st0{fill:none;stroke:#000000;stroke-width:3;stroke-linecap:round;stroke-linejoin:round;}
</style>
<path class="st0" d="M89.6,86.3h29.2 M118.8,86.3v29.2 M118.8,86.3l-37.5,37.5"/>
<g>
	<path d="M59.2,30.9l-4.4-8.4l1.8-0.9l1.8,3.5l3.6-1.9l-1.8-3.5l1.8-0.9l4.4,8.4L64.6,28l-1.8-3.5l-3.6,1.9l1.8,3.5L59.2,30.9z"/>
	<path d="M65.9,17.1l3.7,8.7l-1.8,0.8L64,17.9L65.9,17.1z"/>
	<path d="M71,25.2l-3.1-8.9l3.5-1.2c0.7-0.2,1.3-0.3,1.9-0.2c0.6,0.1,1,0.3,1.4,0.6c0.4,0.4,0.7,0.8,0.9,1.4
		c0.2,0.6,0.2,1.1,0.1,1.7c-0.1,0.5-0.4,1-0.8,1.4c-0.4,0.4-1,0.7-1.6,0.9L71,21.6l-0.5-1.5l2.1-0.7c0.4-0.1,0.6-0.3,0.8-0.5
		c0.2-0.2,0.3-0.4,0.4-0.6c0.1-0.2,0-0.5-0.1-0.8c-0.1-0.3-0.2-0.5-0.4-0.7c-0.2-0.2-0.4-0.3-0.7-0.3c-0.3,0-0.6,0-1,0.2l-1.3,0.4
		l2.5,7.4L71,25.2z M74.4,19.4l3.6,3.3l-2.1,0.7l-3.6-3.3L74.4,19.4z"/>
	<path d="M78.8,22.6l-2.2-9.2l6.2-1.5l0.4,1.6l-4.3,1l0.5,2.2l3.9-0.9l0.4,1.6l-3.9,0.9l0.5,2.2l4.3-1l0.4,1.6L78.8,22.6z"/>
	<path d="M91,20.2l-2.1,0.2l2.4-9.7l2.6-0.2l4.1,9.1l-2.1,0.2l-3-7.1l-0.1,0L91,20.2z M90.5,16.5l5-0.4l0.1,1.6l-5,0.4L90.5,16.5z"
		/>
	<path d="M110.5,14l-2-0.1c0-0.3-0.1-0.5-0.2-0.7c-0.1-0.2-0.2-0.4-0.4-0.6c-0.2-0.2-0.4-0.3-0.6-0.4c-0.2-0.1-0.5-0.1-0.7-0.2
		c-0.5,0-0.9,0.1-1.3,0.3c-0.4,0.2-0.7,0.5-0.9,1s-0.4,1-0.4,1.7c0,0.7,0,1.2,0.2,1.7c0.2,0.5,0.4,0.8,0.8,1.1
		c0.3,0.3,0.8,0.4,1.2,0.4c0.3,0,0.5,0,0.8-0.1s0.4-0.1,0.6-0.3c0.2-0.1,0.3-0.3,0.5-0.5s0.2-0.4,0.3-0.7l2,0.1
		c-0.1,0.4-0.2,0.8-0.5,1.2s-0.5,0.7-0.9,1c-0.4,0.3-0.8,0.5-1.3,0.7c-0.5,0.2-1,0.2-1.6,0.2c-0.8-0.1-1.6-0.3-2.2-0.7
		c-0.6-0.4-1.1-1-1.5-1.8c-0.3-0.7-0.5-1.6-0.4-2.7c0.1-1,0.3-1.9,0.8-2.6c0.4-0.7,1-1.2,1.7-1.5c0.7-0.3,1.4-0.5,2.3-0.4
		c0.5,0,1,0.1,1.5,0.3c0.5,0.2,0.9,0.4,1.2,0.8c0.3,0.3,0.6,0.7,0.8,1.1C110.4,13,110.5,13.5,110.5,14z"/>
	<path d="M111.2,20.4l1.6-9.3l6.3,1.1l-0.3,1.6l-4.3-0.7l-0.4,2.2l4,0.7l-0.3,1.6l-4-0.7l-0.4,2.2l4.3,0.7l-0.3,1.6L111.2,20.4z"/>
	<path d="M118.9,21.7l2.5-9.1l3.6,1c0.7,0.2,1.2,0.5,1.7,0.9c0.4,0.4,0.7,0.8,0.8,1.3c0.1,0.5,0.1,1.1,0,1.7
		c-0.2,0.6-0.4,1.1-0.8,1.5c-0.4,0.4-0.8,0.6-1.4,0.7c-0.6,0.1-1.2,0-1.9-0.1l-2.4-0.7l0.4-1.5l2.1,0.6c0.4,0.1,0.7,0.1,1,0.1
		c0.3,0,0.5-0.1,0.7-0.3c0.2-0.2,0.3-0.4,0.4-0.7c0.1-0.3,0.1-0.6,0-0.8c-0.1-0.2-0.2-0.4-0.4-0.6s-0.5-0.3-0.9-0.4l-1.3-0.4
		l-2.1,7.5L118.9,21.7z M124.9,18.9l1.1,4.8l-2.1-0.6l-1.1-4.8L124.9,18.9z"/>
	<path d="M129.3,16.6l0.6-1.5l7.2,2.8l-0.6,1.5l-2.7-1.1l-2.8,7.3l-1.8-0.7l2.8-7.3L129.3,16.6z"/>
	<path d="M140.6,19.6l-4.1,8.5l-1.8-0.9l4.1-8.5L140.6,19.6z"/>
	<path d="M137.9,28.8l4.7-8.2l5.4,3.1l-0.8,1.4l-3.7-2.1l-1.1,2l3.3,1.9l-0.8,1.4l-3.3-1.9l-1.9,3.4L137.9,28.8z"/>
	<path d="M151.3,25.8l-5.2,7.9l-1.7-1.1l5.2-7.9L151.3,25.8z"/>
	<path d="M147.4,34.5l5.7-7.5l5.1,3.9l-1,1.3l-3.5-2.7l-1.4,1.8l3.2,2.5l-1,1.3l-3.2-2.5l-1.4,1.8l3.5,2.7l-1,1.3L147.4,34.5z"/>
	<path d="M155.9,41.5l-2.4-2.3l6.5-6.9l2.5,2.3c0.7,0.7,1.2,1.4,1.4,2.1c0.2,0.7,0.3,1.5,0,2.3c-0.2,0.8-0.7,1.5-1.3,2.2
		c-0.7,0.7-1.4,1.2-2.1,1.5c-0.8,0.3-1.5,0.3-2.3,0.1C157.3,42.6,156.6,42.2,155.9,41.5z M156.1,39.3l0.9,0.9
		c0.4,0.4,0.9,0.7,1.3,0.8c0.4,0.1,0.9,0.1,1.3-0.1c0.5-0.2,0.9-0.5,1.4-1c0.5-0.5,0.8-1,1-1.5c0.2-0.5,0.2-0.9,0-1.3
		c-0.1-0.4-0.4-0.8-0.9-1.3l-0.9-0.9L156.1,39.3z"/>
	<path d="M164.2,50.5l-2.1-2.6l7.4-5.8l2.1,2.7c0.6,0.7,0.9,1.5,1.1,2.3c0.1,0.8,0,1.5-0.3,2.2c-0.3,0.7-0.9,1.4-1.6,2
		c-0.8,0.6-1.6,1-2.3,1.1c-0.8,0.1-1.5,0.1-2.3-0.2C165.4,51.7,164.8,51.2,164.2,50.5z M164.7,48.3l0.8,1c0.4,0.5,0.8,0.8,1.2,1
		c0.4,0.2,0.9,0.2,1.3,0.1c0.5-0.1,1-0.4,1.5-0.8c0.5-0.4,0.9-0.9,1.2-1.3c0.2-0.4,0.3-0.9,0.2-1.3c-0.1-0.4-0.3-0.9-0.7-1.4l-0.8-1
		L164.7,48.3z"/>
	<path d="M167.7,55.1l8-5l3.4,5.4l-1.4,0.9l-2.3-3.7l-1.9,1.2l2.2,3.4l-1.4,0.9l-2.2-3.4l-1.9,1.2l2.3,3.7l-1.4,0.9L167.7,55.1z"/>
	<path d="M180.1,63.3c0.3-0.2,0.5-0.5,0.6-0.8s0-0.7-0.2-1.2c-0.1-0.3-0.3-0.5-0.5-0.7c-0.2-0.2-0.4-0.3-0.6-0.3
		c-0.2,0-0.4,0-0.6,0.1c-0.2,0.1-0.3,0.2-0.3,0.3c-0.1,0.1-0.1,0.3-0.1,0.4c0,0.2,0,0.3,0,0.5c0,0.2,0.1,0.4,0.1,0.6l0.2,0.9
		c0.1,0.4,0.2,0.8,0.2,1.2c0,0.4,0,0.7-0.1,1.1c-0.1,0.3-0.2,0.6-0.4,0.9c-0.2,0.3-0.5,0.5-0.8,0.7c-0.5,0.3-1,0.3-1.5,0.3
		s-1-0.3-1.4-0.7s-0.8-0.9-1.2-1.6c-0.3-0.7-0.5-1.3-0.6-1.9c0-0.6,0.1-1.2,0.3-1.6c0.3-0.5,0.7-0.9,1.3-1.2l0.9,1.7
		c-0.3,0.2-0.5,0.4-0.6,0.6c-0.1,0.2-0.2,0.5-0.1,0.8c0,0.3,0.1,0.6,0.3,0.9c0.2,0.3,0.3,0.5,0.5,0.7c0.2,0.2,0.4,0.3,0.6,0.3
		c0.2,0,0.4,0,0.6-0.1c0.2-0.1,0.3-0.2,0.4-0.4c0.1-0.2,0.1-0.4,0.1-0.7c0-0.3-0.1-0.6-0.1-0.9l-0.2-1c-0.2-0.8-0.2-1.5,0-2.1
		s0.6-1.1,1.2-1.4c0.5-0.3,1-0.3,1.5-0.3c0.5,0.1,1,0.3,1.5,0.7c0.5,0.4,0.8,0.9,1.1,1.5c0.3,0.6,0.5,1.2,0.5,1.8
		c0,0.6-0.1,1.1-0.3,1.5c-0.3,0.5-0.6,0.8-1.1,1.1L180.1,63.3z"/>
	<path d="M184.9,67.5l-8.7,3.6l-0.8-1.8l8.7-3.6L184.9,67.5z"/>
	<path d="M184.7,76.5c0.2-0.1,0.4-0.3,0.5-0.4c0.1-0.2,0.2-0.3,0.3-0.5s0.1-0.4,0.1-0.6c0-0.2,0-0.5-0.1-0.7
		c-0.1-0.5-0.4-0.8-0.7-1.1s-0.8-0.4-1.3-0.5s-1.1,0-1.7,0.2s-1.1,0.5-1.5,0.8c-0.4,0.3-0.6,0.7-0.7,1.1c-0.1,0.4-0.1,0.9,0,1.3
		c0.1,0.4,0.3,0.8,0.6,1c0.3,0.3,0.5,0.4,0.9,0.5c0.3,0.1,0.7,0,1.1-0.1l0.1,0.4l-0.7-2.3l1.4-0.5l1.2,3.8l-1.1,0.4
		c-0.8,0.3-1.5,0.3-2.2,0.1c-0.7-0.2-1.3-0.5-1.7-1c-0.5-0.5-0.9-1.1-1.1-1.9c-0.3-0.8-0.3-1.6-0.1-2.4s0.5-1.4,1.1-2
		c0.6-0.6,1.3-1,2.3-1.3c0.7-0.2,1.4-0.3,2.1-0.3c0.6,0,1.2,0.2,1.7,0.4c0.5,0.3,1,0.6,1.3,1.1c0.4,0.4,0.7,1,0.8,1.6
		c0.2,0.5,0.2,1,0.2,1.5s-0.1,0.9-0.3,1.4s-0.4,0.8-0.7,1.1c-0.3,0.3-0.7,0.6-1.1,0.8L184.7,76.5z"/>
	<path d="M190.3,87.6l-9.3,1.8l-0.3-1.7l5.1-5.2l0-0.1l-5.8,1.1l-0.4-2l9.3-1.8l0.3,1.7l-5.1,5.1l0,0.1l5.8-1.1L190.3,87.6z"/>
	<path d="M181.2,90.7l9.4-0.8l0.6,6.3l-1.6,0.1l-0.4-4.4l-2.2,0.2l0.4,4l-1.6,0.1l-0.3-4l-2.2,0.2l0.4,4.4l-1.6,0.1L181.2,90.7z"/>
	<path d="M186.1,103.6l-4.3,2.3l0-2.2l4.3-2.2L186.1,103.6z M181.8,98.4l9.5,0.2l-0.1,3.7c0,0.7-0.1,1.3-0.4,1.8
		c-0.3,0.5-0.6,0.9-1.1,1.1c-0.5,0.3-1,0.4-1.6,0.4c-0.6,0-1.2-0.2-1.6-0.4c-0.4-0.3-0.8-0.7-1-1.2c-0.2-0.5-0.3-1.1-0.3-1.9l0-2.5
		l1.6,0l0,2.2c0,0.4,0,0.7,0.1,1s0.3,0.4,0.5,0.6s0.5,0.2,0.8,0.2c0.3,0,0.6-0.1,0.8-0.2c0.2-0.1,0.4-0.3,0.5-0.6
		c0.1-0.3,0.2-0.6,0.2-1l0-1.3l-7.8-0.1L181.8,98.4z"/>
	<path d="M180.8,112.6c0.1-0.6,0.3-1.2,0.6-1.6c0.3-0.4,0.7-0.7,1.1-0.9c0.4-0.2,0.9-0.2,1.4-0.2c0.4,0.1,0.7,0.2,0.9,0.4
		c0.3,0.2,0.5,0.4,0.7,0.7s0.4,0.6,0.6,1l0.9,2c0.1,0.3,0.2,0.5,0.4,0.6c0.1,0.1,0.3,0.2,0.5,0.2c0.2,0,0.4,0,0.5-0.1
		c0.2-0.1,0.3-0.3,0.3-0.6c0-0.2,0-0.3,0-0.5c-0.1-0.1-0.2-0.3-0.3-0.4c-0.1-0.1-0.3-0.2-0.4-0.2c-0.2,0-0.4,0-0.6,0.1
		c-0.2,0.1-0.5,0.2-0.7,0.3c-0.3,0.1-0.5,0.3-0.8,0.5l-5.8,3.7l0.3-2l4.7-3.1c0.3-0.2,0.6-0.4,1-0.6c0.3-0.2,0.7-0.3,1.1-0.5
		c0.4-0.1,0.8-0.1,1.2-0.1c0.5,0.1,0.8,0.2,1.2,0.5c0.3,0.3,0.6,0.6,0.7,1c0.2,0.4,0.2,0.9,0.1,1.4c-0.1,0.5-0.2,0.9-0.5,1.2
		c-0.3,0.3-0.6,0.6-0.9,0.7c-0.4,0.1-0.7,0.2-1.1,0.1c-0.4-0.1-0.8-0.2-1.1-0.5c-0.3-0.3-0.6-0.6-0.8-1.1l-1.1-2.1
		c-0.1-0.3-0.3-0.5-0.5-0.7c-0.2-0.2-0.4-0.2-0.5-0.3c-0.2,0-0.4,0-0.6,0.1c-0.2,0.1-0.4,0.2-0.5,0.4c-0.1,0.2-0.2,0.4-0.3,0.7
		c0,0.3,0,0.7,0.1,1s0.3,0.7,0.5,1s0.5,0.6,0.9,0.8c0.4,0.2,0.8,0.4,1.2,0.4l-0.2,1.6c-0.6-0.1-1.1-0.2-1.5-0.4
		c-0.4-0.2-0.8-0.4-1.1-0.7s-0.5-0.6-0.7-0.9c0-0.1-0.1-0.2-0.1-0.3s-0.1-0.2-0.1-0.3c-0.2-0.4-0.4-0.8-0.4-1.3
		C180.8,113.4,180.8,113,180.8,112.6z"/>
	<path d="M178.4,124.3l1-3.2l9,2.8l-1,3.2c-0.3,0.9-0.7,1.6-1.3,2.2s-1.2,0.9-2,1s-1.6,0.1-2.6-0.2c-0.9-0.3-1.7-0.7-2.3-1.3
		c-0.6-0.6-0.9-1.2-1.1-2C178.1,126.1,178.1,125.2,178.4,124.3z M180.4,123.5l-0.4,1.2c-0.2,0.6-0.2,1.1-0.1,1.5
		c0.1,0.4,0.3,0.8,0.7,1.2s0.9,0.6,1.6,0.8c0.7,0.2,1.2,0.3,1.7,0.2c0.5-0.1,0.9-0.3,1.2-0.6s0.6-0.8,0.7-1.3l0.4-1.2L180.4,123.5z"
		/>
	<path d="M176.6,129.8l8.7,3.7l-2.5,5.9l-1.5-0.6l1.7-4l-2.1-0.9l-1.6,3.7l-1.5-0.6l1.6-3.7l-2.1-0.9l-1.7,4l-1.5-0.6L176.6,129.8z"
		/>
	<path d="M181,143l-7.4-1.5l0,0.1l5.2,5.5l-1.1,1.9l-6.7-7.4l1.3-2.3l9.8,1.7L181,143z"/>
	<path d="M168.9,145.1l7.7,5.4l-3.7,5.2l-1.3-0.9l2.5-3.6l-1.8-1.3l-2.3,3.3l-1.3-0.9l2.3-3.3l-1.8-1.3l-2.5,3.6l-1.3-0.9
		L168.9,145.1z"/>
	<path d="M164.3,151.4l7.2,6.1l-1.3,1.5l-6-5.1l-2.6,3.1l-1.3-1.1L164.3,151.4z"/>
	<path d="M157,166c-0.7-0.7-1.2-1.5-1.4-2.3s-0.2-1.6,0-2.3c0.2-0.7,0.6-1.4,1.2-2c0.6-0.6,1.3-1,2-1.2c0.7-0.2,1.5-0.2,2.3,0.1
		s1.5,0.7,2.2,1.5c0.7,0.7,1.2,1.5,1.4,2.3c0.2,0.8,0.2,1.6,0,2.3c-0.2,0.7-0.6,1.4-1.2,2c-0.6,0.6-1.3,1-2,1.2
		c-0.7,0.2-1.5,0.2-2.3-0.1S157.7,166.8,157,166z M158.4,164.6c0.5,0.5,0.9,0.8,1.4,1s0.9,0.2,1.3,0.2s0.8-0.3,1.2-0.6
		c0.3-0.3,0.6-0.7,0.7-1.1c0.1-0.4,0.1-0.9-0.1-1.3c-0.2-0.5-0.5-0.9-1-1.4c-0.5-0.5-0.9-0.8-1.4-1c-0.5-0.2-0.9-0.2-1.3-0.2
		c-0.4,0.1-0.8,0.3-1.2,0.6c-0.3,0.3-0.6,0.7-0.7,1.1c-0.1,0.4-0.1,0.9,0.1,1.3C157.7,163.7,158,164.1,158.4,164.6z"/>
	<path d="M152.8,163.4l5.8,7.5l-3,2.3c-0.6,0.4-1.1,0.7-1.7,0.8c-0.6,0.1-1.1,0-1.6-0.2c-0.5-0.2-0.9-0.6-1.3-1.1
		c-0.4-0.5-0.6-1-0.7-1.6c-0.1-0.5,0-1.1,0.2-1.6c0.2-0.5,0.7-1,1.2-1.5l1.9-1.5l1,1.3l-1.6,1.3c-0.3,0.2-0.5,0.5-0.6,0.7
		s-0.2,0.5-0.1,0.8s0.2,0.5,0.4,0.8c0.2,0.2,0.4,0.4,0.7,0.5c0.2,0.1,0.5,0.1,0.8,0.1c0.3-0.1,0.6-0.2,0.9-0.4l1.1-0.8l-4.8-6.2
		L152.8,163.4z"/>
	<path d="M146.2,168.3l5,8l-5.4,3.4l-0.9-1.4l3.7-2.3l-1.2-1.9l-3.4,2.1l-0.9-1.4l3.4-2.1l-1.2-1.9l-3.7,2.3l-0.9-1.4L146.2,168.3z"
		/>
	<path d="M137,178.4l-4-2.8l2-1l4,2.8L137,178.4z M139.7,172.3l4.2,8.5l-3.3,1.7c-0.6,0.3-1.2,0.5-1.8,0.5c-0.6,0-1.1-0.2-1.5-0.4
		c-0.4-0.3-0.8-0.7-1.1-1.3c-0.3-0.6-0.4-1.1-0.4-1.6c0-0.5,0.2-1,0.6-1.5c0.4-0.4,0.9-0.8,1.5-1.1l2.2-1.1l0.7,1.4l-1.9,1
		c-0.3,0.2-0.6,0.4-0.8,0.6s-0.3,0.4-0.3,0.7c0,0.2,0,0.5,0.2,0.8c0.1,0.3,0.3,0.5,0.5,0.6c0.2,0.1,0.4,0.2,0.7,0.2
		c0.3,0,0.6-0.1,0.9-0.3l1.2-0.6l-3.5-7L139.7,172.3z"/>
	<path d="M126.7,182.9l-0.5-1.5l4.1-1.4l0.5,1.5L126.7,182.9z"/>
	<path d="M117.2,187.5c0.1,0.4,0.3,0.6,0.6,0.8s0.7,0.2,1.2,0.1c0.3-0.1,0.6-0.2,0.8-0.3s0.3-0.3,0.4-0.5c0.1-0.2,0.1-0.4,0.1-0.6
		c0-0.2-0.1-0.3-0.2-0.4c-0.1-0.1-0.2-0.2-0.4-0.2c-0.2-0.1-0.3-0.1-0.5-0.1c-0.2,0-0.4,0-0.6,0l-0.9,0c-0.4,0-0.8,0-1.2-0.1
		c-0.4-0.1-0.7-0.2-1-0.4c-0.3-0.2-0.5-0.4-0.7-0.7c-0.2-0.3-0.3-0.6-0.4-1c-0.1-0.6-0.1-1.1,0.1-1.6c0.2-0.5,0.5-0.9,1-1.2
		c0.5-0.3,1.1-0.6,1.9-0.8c0.7-0.2,1.4-0.2,2-0.1c0.6,0.1,1.1,0.4,1.5,0.7s0.7,0.9,0.8,1.6l-1.9,0.4c-0.1-0.3-0.2-0.5-0.4-0.7
		c-0.2-0.2-0.4-0.3-0.7-0.3c-0.3,0-0.6,0-0.9,0c-0.3,0.1-0.6,0.2-0.8,0.3c-0.2,0.1-0.4,0.3-0.5,0.5c-0.1,0.2-0.1,0.4-0.1,0.6
		c0,0.2,0.1,0.4,0.3,0.5c0.2,0.1,0.4,0.2,0.6,0.2c0.3,0,0.6,0.1,0.9,0.1l1.1,0c0.8,0,1.5,0.2,2,0.5s0.9,0.8,1,1.5
		c0.1,0.6,0.1,1.1-0.1,1.6c-0.2,0.5-0.6,0.9-1,1.2c-0.5,0.3-1.1,0.6-1.7,0.7c-0.7,0.1-1.3,0.2-1.9,0c-0.6-0.1-1-0.4-1.4-0.7
		c-0.4-0.4-0.6-0.8-0.8-1.4L117.2,187.5z"/>
	<path d="M112.7,181.4l1,9.4l-6.3,0.7l-0.2-1.6l4.3-0.5l-0.2-2.2l-4,0.4l-0.2-1.6l4-0.4l-0.2-2.2l-4.4,0.5l-0.2-1.6L112.7,181.4z"/>
	<path d="M96.4,187.1c0-1,0.2-1.9,0.5-2.6c0.4-0.7,0.9-1.3,1.6-1.7c0.7-0.4,1.4-0.6,2.2-0.6c0.8,0,1.6,0.2,2.3,0.5
		c0.7,0.4,1.2,0.9,1.6,1.6s0.6,1.6,0.6,2.6c0,1-0.2,1.9-0.5,2.6s-0.9,1.3-1.6,1.7c-0.7,0.4-1.4,0.6-2.3,0.6c-0.8,0-1.6-0.2-2.3-0.5
		c-0.7-0.4-1.2-0.9-1.6-1.6S96.4,188.1,96.4,187.1z M98.4,187.1c0,0.7,0.1,1.2,0.3,1.7c0.2,0.5,0.5,0.8,0.9,1
		c0.4,0.2,0.8,0.3,1.3,0.3c0.5,0,0.9-0.1,1.3-0.4c0.4-0.2,0.6-0.6,0.8-1.1c0.2-0.5,0.3-1,0.3-1.7c0-0.7-0.1-1.2-0.3-1.7
		c-0.2-0.5-0.5-0.8-0.9-1c-0.4-0.2-0.8-0.3-1.3-0.3c-0.5,0-0.9,0.1-1.3,0.4c-0.4,0.2-0.6,0.6-0.8,1.1
		C98.5,185.8,98.4,186.4,98.4,187.1z"/>
	<path d="M92.1,181.9l-1.3,9.4l-6.3-0.9l0.2-1.6l4.3,0.6l0.3-2.2l-4-0.6l0.2-1.6l4,0.6l0.3-2.2l-4.3-0.6l0.2-1.6L92.1,181.9z"/>
	<path d="M80.4,189.5l-1.1-3.6l-0.1,0l-2.6,2.7l-2.2-0.5l3.9-3.9l-1.7-5.3l2.2,0.6L80,183l0.1,0l2.7-2.7l2.2,0.6l-4,3.9l1.7,5.3
		L80.4,189.5z"/>
	<path d="M75.8,178.5l-3.2,8.9l-3.5-1.3c-0.7-0.2-1.2-0.6-1.6-1c-0.4-0.4-0.6-0.9-0.7-1.5s0-1.1,0.2-1.7c0.2-0.6,0.5-1.1,1-1.4
		c0.4-0.4,0.9-0.6,1.5-0.6c0.6-0.1,1.2,0,1.9,0.3l2.2,0.8l-0.5,1.5l-1.9-0.7c-0.4-0.1-0.7-0.2-1-0.1c-0.3,0-0.5,0.2-0.7,0.3
		c-0.2,0.2-0.4,0.4-0.5,0.7c-0.1,0.3-0.1,0.6-0.1,0.8s0.2,0.5,0.3,0.7c0.2,0.2,0.5,0.4,0.8,0.5l1.3,0.5l2.7-7.3L75.8,178.5z"/>
	<path d="M68.1,175.6l-4.1,8.5l-5.7-2.8l0.7-1.5l3.9,1.9l1-2l-3.6-1.8l0.7-1.5l3.6,1.8l1-2l-4-1.9l0.7-1.5L68.1,175.6z"/>
	<path d="M61.2,172.3l-4.9,8.1l-3.2-1.9c-0.6-0.4-1.1-0.8-1.4-1.3c-0.3-0.5-0.4-1-0.4-1.5s0.2-1.1,0.5-1.6c0.3-0.5,0.7-0.9,1.2-1.2
		s1-0.3,1.5-0.3c0.6,0.1,1.2,0.3,1.8,0.7l2.1,1.3l-0.8,1.4l-1.9-1.1c-0.3-0.2-0.6-0.3-0.9-0.4c-0.3,0-0.5,0-0.7,0.1
		c-0.2,0.1-0.4,0.3-0.6,0.6c-0.2,0.3-0.2,0.5-0.3,0.8s0.1,0.5,0.2,0.7c0.2,0.2,0.4,0.4,0.7,0.6l1.2,0.7l4.1-6.7L61.2,172.3z
		 M54.6,173.3l0.2-4.9l1.9,1.1l-0.3,4.9L54.6,173.3z"/>
	<path d="M49.7,174.3l-1,1.3l-6.2-4.7l1-1.3l2.3,1.8l4.7-6.2l1.6,1.2l-4.7,6.2L49.7,174.3z"/>
	<path d="M38.8,160.9l1.1-1.1l3.1,3l-1.1,1.1L38.8,160.9z"/>
	<path d="M39,154.2l-1.1,0.9l-4.5-0.7c-0.4-0.1-0.7-0.1-1-0.1c-0.3,0-0.6,0-0.8,0.1c-0.2,0.1-0.4,0.2-0.6,0.3
		c-0.2,0.2-0.4,0.4-0.4,0.6c-0.1,0.2-0.1,0.5,0,0.7c0.1,0.2,0.2,0.5,0.3,0.7c0.2,0.2,0.4,0.4,0.6,0.5s0.5,0.1,0.7,0.1
		c0.2,0,0.5-0.2,0.7-0.3l1.2,1.5c-0.5,0.4-1,0.6-1.5,0.7c-0.5,0.1-1.1,0-1.6-0.3c-0.5-0.2-1-0.6-1.4-1.1c-0.4-0.5-0.7-1.1-0.8-1.6
		s-0.1-1.1,0-1.5c0.2-0.5,0.4-0.9,0.9-1.2c0.3-0.2,0.6-0.4,1-0.5c0.4-0.1,0.8-0.2,1.4-0.1c0.6,0,1.3,0.1,2.1,0.2l1.9,0.2l0.1,0
		l-2.5-3.1l1.3-1L39,154.2z"/>
	<path d="M32.2,144.8c0.4,0.7,0.6,1.3,0.6,2c0,0.7-0.3,1.4-0.7,2c-0.5,0.7-1.1,1.3-2,1.8c-0.9,0.6-1.7,0.9-2.5,1
		c-0.8,0.1-1.5,0.1-2.1-0.2c-0.6-0.3-1.2-0.7-1.6-1.4c-0.4-0.7-0.6-1.3-0.6-2s0.2-1.4,0.7-2c0.4-0.7,1.1-1.3,2-1.8
		c0.9-0.6,1.7-0.9,2.5-1.1c0.8-0.1,1.5-0.1,2.1,0.2S31.8,144.1,32.2,144.8z M30.8,145.6c-0.3-0.5-0.8-0.7-1.4-0.7s-1.4,0.3-2.3,0.9
		c-0.6,0.4-1.1,0.8-1.4,1.2c-0.3,0.4-0.5,0.7-0.6,1.1s0,0.7,0.2,1c0.3,0.5,0.8,0.7,1.4,0.7c0.6,0,1.4-0.3,2.3-0.9
		c0.6-0.4,1.1-0.8,1.4-1.2c0.3-0.4,0.5-0.8,0.6-1.1C31.1,146.3,31,145.9,30.8,145.6z"/>
	<path d="M29.4,140.6l-1.3,0.7l-4.3-1.6c-0.4-0.1-0.7-0.2-1-0.3s-0.5-0.1-0.8-0.1c-0.2,0-0.5,0.1-0.7,0.2c-0.2,0.1-0.4,0.3-0.6,0.5
		c-0.1,0.2-0.2,0.4-0.2,0.7c0,0.2,0.1,0.5,0.2,0.7c0.1,0.3,0.3,0.5,0.5,0.6c0.2,0.1,0.4,0.2,0.7,0.2c0.2,0,0.5-0.1,0.8-0.2l0.9,1.7
		c-0.6,0.3-1.1,0.4-1.6,0.4c-0.5,0-1-0.2-1.5-0.6c-0.5-0.3-0.8-0.8-1.1-1.4c-0.3-0.6-0.5-1.2-0.5-1.7s0.1-1.1,0.4-1.5s0.6-0.8,1.1-1
		c0.3-0.2,0.7-0.3,1-0.3s0.8,0,1.4,0.1c0.5,0.1,1.2,0.3,2,0.7l1.8,0.6l0.1,0l-1.8-3.5l1.5-0.7L29.4,140.6z"/>
	<path d="M24.8,130.2c0.2,0.6,0.3,1.2,0.3,1.8s-0.2,1.1-0.5,1.5s-0.7,0.8-1.2,1l-0.7-1.8c0.3-0.2,0.6-0.4,0.7-0.8
		c0.1-0.3,0.1-0.7,0-1.1c-0.1-0.3-0.3-0.5-0.5-0.7s-0.5-0.3-0.8-0.3c-0.3,0-0.6,0-0.9,0.1c-0.3,0.1-0.6,0.3-0.7,0.5
		c-0.2,0.2-0.3,0.5-0.3,0.8c0,0.3,0,0.6,0.1,0.9c0.1,0.3,0.2,0.5,0.4,0.7c0.2,0.2,0.4,0.3,0.7,0.4l0.3,1.8l-4.8,1.4l-2.1-5.4
		l1.5-0.6l1.5,3.9l2.3-0.6l0-0.1c-0.3-0.1-0.5-0.2-0.8-0.5c-0.3-0.3-0.5-0.6-0.6-1c-0.2-0.5-0.3-1.1-0.2-1.6s0.3-1,0.6-1.4
		c0.3-0.4,0.8-0.7,1.4-0.9c0.6-0.2,1.2-0.3,1.7-0.2c0.6,0.1,1.1,0.3,1.5,0.7S24.5,129.6,24.8,130.2z"/>
	<path d="M16.6,119.7l1.5-0.4l1,4.2l-1.5,0.4L16.6,119.7z"/>
	<path d="M12.9,109.8c-0.4,0.1-0.6,0.3-0.8,0.6c-0.2,0.3-0.2,0.7-0.2,1.2c0,0.3,0.1,0.6,0.2,0.8c0.1,0.2,0.3,0.4,0.4,0.5
		c0.2,0.1,0.4,0.1,0.6,0.1c0.2,0,0.3-0.1,0.4-0.2c0.1-0.1,0.2-0.2,0.3-0.4c0.1-0.1,0.1-0.3,0.2-0.5s0.1-0.4,0.1-0.6l0.1-0.9
		c0-0.4,0.1-0.8,0.2-1.2s0.3-0.7,0.5-1s0.4-0.5,0.7-0.7s0.6-0.3,1-0.3c0.6-0.1,1.1,0,1.5,0.3c0.5,0.2,0.8,0.6,1.1,1.1
		c0.3,0.5,0.5,1.2,0.6,1.9c0.1,0.8,0.1,1.4-0.1,2c-0.2,0.6-0.5,1.1-0.9,1.4c-0.4,0.4-1,0.6-1.6,0.7l-0.2-1.9
		c0.3-0.1,0.6-0.2,0.8-0.4c0.2-0.2,0.3-0.4,0.4-0.7c0.1-0.3,0.1-0.6,0-0.9c0-0.3-0.1-0.6-0.3-0.9s-0.3-0.4-0.5-0.5
		c-0.2-0.1-0.4-0.2-0.6-0.1c-0.2,0-0.4,0.1-0.5,0.2s-0.2,0.3-0.3,0.6c-0.1,0.2-0.1,0.5-0.2,0.9l-0.1,1.1c-0.1,0.8-0.3,1.5-0.7,2
		c-0.4,0.5-0.9,0.8-1.6,0.9c-0.6,0.1-1.1,0-1.5-0.3c-0.5-0.3-0.8-0.6-1.1-1.1c-0.3-0.5-0.5-1.1-0.6-1.8c-0.1-0.7,0-1.3,0.1-1.9
		c0.2-0.5,0.5-1,0.9-1.3s0.9-0.5,1.4-0.6L12.9,109.8z"/>
	<path d="M19.3,104.5l0,2.1l-9.5-3.1l0-2.6l9.4-3.4l0,2.1l-7.3,2.5l0,0.1L19.3,104.5z M15.5,104.7l-0.1-5.1l1.6,0l0.1,5.1
		L15.5,104.7z"/>
	<path d="M19.4,95.1l-0.2,2.1L10.1,93l0.3-2.6l9.7-2.3l-0.2,2.1l-7.5,1.6l0,0.1L19.4,95.1z M15.7,94.9l0.5-5l1.6,0.2l-0.5,5
		L15.7,94.9z"/>
	<path d="M21,84.1l-0.7,3.3l-9.2-2l0.7-3.3c0.2-0.9,0.6-1.7,1.1-2.3c0.5-0.6,1.2-1,1.9-1.2c0.8-0.2,1.6-0.2,2.6,0
		c1,0.2,1.7,0.6,2.4,1.1c0.6,0.5,1,1.1,1.3,1.9C21.2,82.3,21.2,83.2,21,84.1z M19,85.1l0.3-1.2c0.1-0.6,0.1-1.1,0-1.5
		s-0.4-0.8-0.8-1.1c-0.4-0.3-0.9-0.5-1.6-0.7c-0.7-0.1-1.3-0.2-1.7-0.1c-0.5,0.1-0.9,0.3-1.2,0.7s-0.5,0.8-0.6,1.4l-0.3,1.2L19,85.1
		z"/>
	<path d="M15.8,73.1l-1.5-0.6l2.7-7.3l1.5,0.6l-1,2.7l7.3,2.8l-0.7,1.8l-7.3-2.8L15.8,73.1z"/>
	<path d="M26.5,67.3l-0.9,1.9l-7-7.1l1.1-2.3l9.9,1.3l-0.9,1.9L21,61.8l0,0.1L26.5,67.3z M23.1,65.7l2.2-4.5l1.4,0.7l-2.2,4.5
		L23.1,65.7z"/>
	<path d="M26.3,48.5l7.9,5.1l-0.9,1.5l-7.2,0.2l0,0.1l5,3.2L30,60.3l-7.9-5.1l1-1.5l7.2-0.2l0-0.1l-5-3.2L26.3,48.5z"/>
	<path d="M28.8,45.3l7,2.8l0.1-0.1l-4.1-6.3l1.4-1.7l5.2,8.5l-1.6,2L27.4,47L28.8,45.3z"/>
	<path d="M35.9,37.3l6.8,6.6l-1.4,1.4l-6.8-6.6L35.9,37.3z"/>
	<path d="M43.7,42.7l-6.3-7l2.8-2.5c0.5-0.5,1.1-0.8,1.6-0.9c0.5-0.1,1.1-0.1,1.6,0c0.5,0.2,1,0.5,1.4,0.9c0.4,0.5,0.7,1,0.8,1.5
		s0,1-0.2,1.6c-0.2,0.5-0.6,1-1.1,1.5l-1.9,1.7l-1.1-1.2l1.6-1.5c0.3-0.3,0.5-0.5,0.6-0.8c0.1-0.2,0.2-0.5,0.1-0.7
		c0-0.2-0.2-0.5-0.4-0.7c-0.2-0.2-0.4-0.4-0.7-0.5c-0.2-0.1-0.5-0.1-0.8,0c-0.3,0.1-0.5,0.3-0.8,0.5l-1,0.9l5.2,5.8L43.7,42.7z
		 M44.6,36.1l4.6,1.6l-1.6,1.5L43,37.6L44.6,36.1z"/>
	<path d="M53.4,29.1l0.9,1.3l-3.5,2.5l-0.9-1.3L53.4,29.1z"/>
</g>
</svg>
