<?xml version="1.0" encoding="utf-8"?>
<!-- Generator: Adobe Illustrator 26.0.1, SVG Export Plug-In . SVG Version: 6.00 Build 0)  -->
<svg version="1.1" id="Layer_1" xmlns="http://www.w3.org/2000/svg" xmlns:xlink="http://www.w3.org/1999/xlink" x="0px" y="0px"
	 viewBox="0 0 200 200" style="enable-background:new 0 0 200 200;" xml:space="preserve">
<style type="text/css">
	.st0{fill:#FF4102;}
</style>
<path class="st0" d="M85.8,189.5c7.4,8.1,20.1,8.1,27.4,0c4.9-5.4,12.4-7.4,19.3-5.2c10.4,3.3,21.4-3,23.8-13.7
	c1.5-7.1,7.1-12.6,14.2-14.2c10.7-2.3,17-13.3,13.7-23.8c-2.2-6.9-0.2-14.5,5.2-19.3c8.1-7.4,8.1-20.1,0-27.4
	c-5.4-4.9-7.4-12.4-5.2-19.3c3.3-10.4-3-21.4-13.7-23.8c-7.1-1.5-12.6-7.1-14.2-14.2C154,18,143,11.7,132.6,15
	c-6.9,2.2-14.5,0.2-19.3-5.2c-7.4-8.1-20.1-8.1-27.4,0C81,15.2,73.4,17.2,66.5,15c-10.4-3.3-21.4,3-23.8,13.7
	c-1.5,7.1-7.1,12.6-14.2,14.2c-10.7,2.3-17,13.3-13.7,23.8C17.1,73.5,15,81.1,9.7,86c-8.1,7.4-8.1,20.1,0,27.4
	c5.4,4.9,7.4,12.4,5.2,19.3c-3.3,10.4,3,21.4,13.7,23.8c7.1,1.5,12.6,7.1,14.2,14.2c2.3,10.7,13.3,17,23.8,13.7
	C73.4,182.2,81,184.2,85.8,189.5z"/>
</svg>
