<svg width="64" height="64" viewBox="0 0 64 64" fill="none" xmlns="http://www.w3.org/2000/svg">
<path d="M22.4402 8.20996C24.5166 9.44655 27.2041 8.72644 28.384 6.61733C29.9657 3.79002 34.0343 3.79002 35.616 6.61733C36.7959 8.72644 39.4834 9.44655 41.5598 8.20996C44.3432 6.55228 47.8668 8.5866 47.8229 11.826C47.7902 14.2425 49.7575 16.2098 52.174 16.1771C55.4134 16.1332 57.4477 19.6568 55.79 22.4402C54.5535 24.5166 55.2736 27.2041 57.3827 28.384C60.21 29.9657 60.21 34.0343 57.3827 35.616C55.2736 36.7959 54.5535 39.4834 55.79 41.5598C57.4477 44.3432 55.4134 47.8668 52.174 47.8229C49.7575 47.7902 47.7902 49.7575 47.8229 52.174C47.8668 55.4134 44.3432 57.4477 41.5598 55.79C39.4834 54.5535 36.7959 55.2736 35.616 57.3827C34.0343 60.21 29.9657 60.21 28.384 57.3827C27.2041 55.2736 24.5166 54.5535 22.4402 55.79C19.6568 57.4477 16.1332 55.4134 16.1771 52.174C16.2098 49.7575 14.2425 47.7902 11.826 47.8229C8.5866 47.8668 6.55228 44.3432 8.20996 41.5598C9.44655 39.4834 8.72644 36.7959 6.61733 35.616C3.79002 34.0343 3.79002 29.9657 6.61733 28.384C8.72644 27.2041 9.44655 24.5166 8.20996 22.4402C6.55228 19.6568 8.5866 16.1332 11.826 16.1771C14.2425 16.2098 16.2098 14.2425 16.1771 11.826C16.1332 8.5866 19.6568 6.55228 22.4402 8.20996Z" fill="url(#paint0_linear_841_32)" stroke="#98A2B3" stroke-width="0.15"/>
<path d="M34.5819 27.3107C34.5769 27.2558 34.5769 27.201 34.5769 27.1461C34.5819 26.5278 34.3526 25.9295 33.9138 25.4907L33.814 25.391C33.3802 24.9571 32.7918 24.7228 32.1785 24.7278C32.1686 24.7278 32.1536 24.7278 32.1436 24.7278C32.1336 24.7278 32.1187 24.7278 32.1087 24.7278C31.4954 24.7178 30.907 24.9571 30.4732 25.391L30.3735 25.4907C29.9347 25.9295 29.7103 26.5278 29.7103 27.1461C29.7103 27.201 29.7103 27.2558 29.7053 27.3107C29.6405 28.4725 28.718 29.4249 27.5562 29.5196C26.0952 29.6443 24.8885 28.4276 25.0082 26.9616C25.1029 25.7998 26.0553 24.8774 27.2072 24.8076C27.257 24.8026 27.3169 24.8026 27.3667 24.8026C27.985 24.8076 28.5784 24.5782 29.0172 24.1394L29.1169 24.0397C29.5557 23.6009 29.7801 23.0025 29.7801 22.3842C29.7801 22.3044 29.7851 22.2197 29.7901 22.1399C29.8948 20.998 30.8272 20.0905 31.9691 20.0057C33.3503 19.911 34.4972 21.003 34.4972 22.3593C34.4972 22.3692 34.4972 22.3842 34.4972 22.3942C34.4872 23.0075 34.7265 23.6009 35.1603 24.0347L35.2601 24.1344C35.6989 24.5732 36.2922 24.8026 36.9105 24.7976C36.9604 24.7976 37.0153 24.7976 37.0701 24.8026C38.2319 24.8674 39.1743 25.7948 39.2691 26.9567C39.3937 28.4226 38.1821 29.6343 36.7211 29.5146C35.5692 29.4249 34.6517 28.4675 34.5819 27.3107Z" fill="#98A2B3"/>
<path d="M32.1526 29.5994C33.454 29.5994 34.5062 30.6565 34.5062 31.9629C34.5062 33.2694 33.454 34.3265 32.1526 34.3265C30.8512 34.3265 29.7991 33.2694 29.7991 31.9629C29.7991 30.6565 30.8512 29.5994 32.1526 29.5994Z" fill="#FF4102"/>
<path d="M29.7206 36.6893C29.7255 36.7442 29.7255 36.799 29.7255 36.8539C29.7206 37.4722 29.9499 38.0705 30.3887 38.5093L30.4885 38.609C30.9223 39.0429 31.5106 39.2772 32.124 39.2722C32.1339 39.2722 32.1489 39.2722 32.1589 39.2722C32.1688 39.2722 32.1838 39.2722 32.1938 39.2722C32.8071 39.2822 33.3955 39.0429 33.8293 38.609L33.929 38.5093C34.3678 38.0705 34.5922 37.4722 34.5922 36.8539C34.5922 36.799 34.5922 36.7442 34.5972 36.6893C34.662 35.5275 35.5845 34.5751 36.7463 34.4804C38.2073 34.3557 39.414 35.5724 39.2943 37.0384C39.1996 38.2002 38.2472 39.1226 37.0953 39.1924C37.0455 39.1974 36.9856 39.1974 36.9358 39.1974C36.3175 39.1924 35.7241 39.4218 35.2853 39.8606L35.1856 39.9603C34.7468 40.3991 34.5224 40.9975 34.5224 41.6158C34.5224 41.6956 34.5174 41.7803 34.5124 41.8601C34.4077 43.002 33.4753 43.9095 32.3334 43.9943C30.9522 44.089 29.8053 42.997 29.8053 41.6407C29.8053 41.6308 29.8053 41.6158 29.8053 41.6058C29.8153 40.9925 29.576 40.3991 29.1421 39.9653L29.0424 39.8656C28.6036 39.4268 28.0103 39.1974 27.3919 39.2024C27.3421 39.2024 27.2872 39.2024 27.2324 39.1974C26.0706 39.1326 25.1282 38.2052 25.0334 37.0433C24.9088 35.5774 26.1204 34.3657 27.5814 34.4854C28.7333 34.5751 29.6508 35.5325 29.7206 36.6893Z" fill="#98A2B3"/>
<defs>
<linearGradient id="paint0_linear_841_32" x1="32" y1="0" x2="32" y2="64" gradientUnits="userSpaceOnUse">
<stop stop-color="#161616"/>
<stop offset="0.475" stop-color="#373739"/>
<stop offset="1" stop-color="#1C1C1C"/>
</linearGradient>
</defs>
</svg>
