<svg width="396" height="221" viewBox="0 0 396 221" fill="none" xmlns="http://www.w3.org/2000/svg">
<g filter="url(#filter0_b_847_14)">
<rect width="172.657" height="172.657" rx="24" transform="matrix(0.976562 0.215236 -0.0143001 0.999898 5.69336 7.21399)" fill="#161616"/>
<rect x="0.481131" y="0.607567" width="171.657" height="171.657" rx="23.5" transform="matrix(0.976562 0.215236 -0.0143001 0.999898 5.71332 7.11049)" stroke="#ECECEC" stroke-opacity="0.8"/>
</g>
<g filter="url(#filter1_b_847_14)">
<rect width="172.657" height="172.657" rx="24" transform="matrix(0.976562 0.215236 -0.0143001 0.999898 16.3667 7.01453)" fill="#161616"/>
<rect x="0.481131" y="0.607567" width="171.657" height="171.657" rx="23.5" transform="matrix(0.976562 0.215236 -0.0143001 0.999898 16.3867 6.91103)" stroke="#ECECEC"/>
</g>
<g filter="url(#filter2_b_847_14)">
<rect width="172.657" height="172.657" rx="24" transform="matrix(0.976562 0.215236 -0.0143001 0.999898 24.666 6.85944)" fill="#161616"/>
<rect x="0.481131" y="0.607567" width="171.657" height="171.657" rx="23.5" transform="matrix(0.976562 0.215236 -0.0143001 0.999898 24.686 6.75594)" stroke="#ECECEC"/>
</g>
<g filter="url(#filter3_b_847_14)">
<rect width="172.657" height="172.657" rx="24" transform="matrix(0.976562 0.215236 -0.0143001 0.999898 32.9653 6.70432)" fill="#161616"/>
<rect x="0.481131" y="0.607567" width="171.657" height="171.657" rx="23.5" transform="matrix(0.976562 0.215236 -0.0143001 0.999898 32.9853 6.60082)" stroke="#ECECEC"/>
</g>
<g filter="url(#filter4_b_847_14)">
<rect width="172.657" height="172.657" rx="24" transform="matrix(0.976562 0.215236 -0.0143001 0.999898 41.2646 6.54922)" fill="#161616"/>
<rect x="0.481131" y="0.607567" width="171.657" height="171.657" rx="23.5" transform="matrix(0.976562 0.215236 -0.0143001 0.999898 41.2846 6.44573)" stroke="#ECECEC"/>
</g>
<g filter="url(#filter5_b_847_14)">
<rect width="172.657" height="172.657" rx="24" transform="matrix(0.976562 0.215236 -0.0143001 0.999898 49.5642 6.3941)" fill="#161616"/>
<rect x="0.481131" y="0.607567" width="171.657" height="171.657" rx="23.5" transform="matrix(0.976562 0.215236 -0.0143001 0.999898 49.5842 6.29061)" stroke="#ECECEC"/>
</g>
<g filter="url(#filter6_b_847_14)">
<rect width="172.657" height="172.657" rx="24" transform="matrix(0.976562 0.215236 -0.0143001 0.999898 57.8635 6.23901)" fill="#161616"/>
<rect x="0.481131" y="0.607567" width="171.657" height="171.657" rx="23.5" transform="matrix(0.976562 0.215236 -0.0143001 0.999898 57.8835 6.13552)" stroke="#ECECEC"/>
</g>
<g filter="url(#filter7_b_847_14)">
<rect width="172.657" height="172.657" rx="24" transform="matrix(0.976562 0.215236 -0.0143001 0.999898 66.1628 6.08392)" fill="#161616"/>
<rect x="0.481131" y="0.607567" width="171.657" height="171.657" rx="23.5" transform="matrix(0.976562 0.215236 -0.0143001 0.999898 66.1828 5.98043)" stroke="#ECECEC"/>
</g>
<g filter="url(#filter8_b_847_14)">
<rect width="172.657" height="172.657" rx="24" transform="matrix(0.976562 0.215236 -0.0143001 0.999898 74.4622 5.9288)" fill="#161616"/>
<rect x="0.481131" y="0.607567" width="171.657" height="171.657" rx="23.5" transform="matrix(0.976562 0.215236 -0.0143001 0.999898 74.4821 5.82531)" stroke="#ECECEC"/>
</g>
<g filter="url(#filter9_b_847_14)">
<rect width="172.657" height="172.657" rx="24" transform="matrix(0.976562 0.215236 -0.0143001 0.999898 82.762 5.77371)" fill="#161616"/>
<rect x="0.481131" y="0.607567" width="171.657" height="171.657" rx="23.5" transform="matrix(0.976562 0.215236 -0.0143001 0.999898 82.7819 5.67022)" stroke="#ECECEC"/>
</g>
<g filter="url(#filter10_b_847_14)">
<rect width="172.657" height="172.657" rx="24" transform="matrix(0.976562 0.215236 -0.0143001 0.999898 91.061 5.61862)" fill="#161616"/>
<rect x="0.481131" y="0.607567" width="171.657" height="171.657" rx="23.5" transform="matrix(0.976562 0.215236 -0.0143001 0.999898 91.081 5.51513)" stroke="#ECECEC"/>
</g>
<g filter="url(#filter11_b_847_14)">
<rect width="172.657" height="172.657" rx="24" transform="matrix(0.976562 0.215236 -0.0143001 0.999898 99.3604 5.4635)" fill="#161616"/>
<rect x="0.481131" y="0.607567" width="171.657" height="171.657" rx="23.5" transform="matrix(0.976562 0.215236 -0.0143001 0.999898 99.3803 5.36001)" stroke="#ECECEC"/>
</g>
<g filter="url(#filter12_b_847_14)">
<rect width="172.657" height="172.657" rx="24" transform="matrix(0.976562 0.215236 -0.0143001 0.999898 107.66 5.30841)" fill="#161616"/>
<rect x="0.481131" y="0.607567" width="171.657" height="171.657" rx="23.5" transform="matrix(0.976562 0.215236 -0.0143001 0.999898 107.68 5.20492)" stroke="#ECECEC"/>
</g>
<g filter="url(#filter13_b_847_14)">
<rect width="172.657" height="172.657" rx="24" transform="matrix(0.976562 0.215236 -0.0143001 0.999898 115.959 5.15329)" fill="#161616"/>
<rect x="0.481131" y="0.607567" width="171.657" height="171.657" rx="23.5" transform="matrix(0.976562 0.215236 -0.0143001 0.999898 115.979 5.0498)" stroke="#ECECEC"/>
</g>
<g filter="url(#filter14_b_847_14)">
<rect width="172.657" height="172.657" rx="24" transform="matrix(0.976562 0.215236 -0.0143001 0.999898 124.258 4.9982)" fill="#161616"/>
<rect x="0.481131" y="0.607567" width="171.657" height="171.657" rx="23.5" transform="matrix(0.976562 0.215236 -0.0143001 0.999898 124.278 4.8947)" stroke="#ECECEC"/>
</g>
<g filter="url(#filter15_b_847_14)">
<rect width="172.657" height="172.657" rx="24" transform="matrix(0.976562 0.215236 -0.0143001 0.999898 132.558 4.84311)" fill="#161616"/>
<rect x="0.481131" y="0.607567" width="171.657" height="171.657" rx="23.5" transform="matrix(0.976562 0.215236 -0.0143001 0.999898 132.578 4.73961)" stroke="#ECECEC"/>
</g>
<g filter="url(#filter16_b_847_14)">
<rect width="172.657" height="172.657" rx="24" transform="matrix(0.976562 0.215236 -0.0143001 0.999898 140.857 4.68802)" fill="#161616"/>
<rect x="0.481131" y="0.607567" width="171.657" height="171.657" rx="23.5" transform="matrix(0.976562 0.215236 -0.0143001 0.999898 140.877 4.58452)" stroke="#ECECEC"/>
</g>
<g filter="url(#filter17_b_847_14)">
<rect width="172.657" height="172.657" rx="24" transform="matrix(0.976562 0.215236 -0.0143001 0.999898 149.156 4.5329)" fill="#161616"/>
<rect x="0.481131" y="0.607567" width="171.657" height="171.657" rx="23.5" transform="matrix(0.976562 0.215236 -0.0143001 0.999898 149.176 4.4294)" stroke="#ECECEC"/>
</g>
<g filter="url(#filter18_b_847_14)">
<rect width="172.657" height="172.657" rx="24" transform="matrix(0.976562 0.215236 -0.0143001 0.999898 157.456 4.37781)" fill="#161616"/>
<rect x="0.481131" y="0.607567" width="171.657" height="171.657" rx="23.5" transform="matrix(0.976562 0.215236 -0.0143001 0.999898 157.476 4.27431)" stroke="#ECECEC"/>
</g>
<g filter="url(#filter19_b_847_14)">
<rect width="172.657" height="172.657" rx="24" transform="matrix(0.976562 0.215236 -0.0143001 0.999898 165.755 4.22272)" fill="#161616"/>
<rect x="0.481131" y="0.607567" width="171.657" height="171.657" rx="23.5" transform="matrix(0.976562 0.215236 -0.0143001 0.999898 165.775 4.11922)" stroke="#ECECEC"/>
</g>
<g filter="url(#filter20_b_847_14)">
<rect width="172.657" height="172.657" rx="24" transform="matrix(0.976562 0.215236 -0.0143001 0.999898 174.054 4.0676)" fill="#161616"/>
<rect x="0.481131" y="0.607567" width="171.657" height="171.657" rx="23.5" transform="matrix(0.976562 0.215236 -0.0143001 0.999898 174.074 3.9641)" stroke="#ECECEC"/>
</g>
<g filter="url(#filter21_b_847_14)">
<rect width="172.657" height="172.657" rx="24" transform="matrix(0.976562 0.215236 -0.0143001 0.999898 182.354 3.91251)" fill="#161616"/>
<rect x="0.481131" y="0.607567" width="171.657" height="171.657" rx="23.5" transform="matrix(0.976562 0.215236 -0.0143001 0.999898 182.374 3.80901)" stroke="#ECECEC"/>
</g>
<g filter="url(#filter22_b_847_14)">
<rect width="172.657" height="172.657" rx="24" transform="matrix(0.976562 0.215236 -0.0143001 0.999898 190.653 3.75739)" fill="#161616"/>
<rect x="0.481131" y="0.607567" width="171.657" height="171.657" rx="23.5" transform="matrix(0.976562 0.215236 -0.0143001 0.999898 190.673 3.65389)" stroke="#ECECEC"/>
</g>
<g filter="url(#filter23_b_847_14)">
<rect width="172.657" height="172.657" rx="24" transform="matrix(0.976562 0.215236 -0.0143001 0.999898 198.953 3.60229)" fill="#161616"/>
<rect x="0.481131" y="0.607567" width="171.657" height="171.657" rx="23.5" transform="matrix(0.976562 0.215236 -0.0143001 0.999898 198.973 3.4988)" stroke="#ECECEC"/>
</g>
<g filter="url(#filter24_b_847_14)">
<rect width="172.657" height="172.657" rx="24" transform="matrix(0.976562 0.215236 -0.0143001 0.999898 207.252 3.4472)" fill="#161616"/>
<rect x="0.481131" y="0.607567" width="171.657" height="171.657" rx="23.5" transform="matrix(0.976562 0.215236 -0.0143001 0.999898 207.272 3.34371)" stroke="#ECECEC"/>
</g>
<g filter="url(#filter25_b_847_14)">
<rect width="172.657" height="172.657" rx="24" transform="matrix(0.976562 0.215236 -0.0143001 0.999898 215.551 3.29211)" fill="#161616"/>
<rect x="0.481131" y="0.607567" width="171.657" height="171.657" rx="23.5" transform="matrix(0.976562 0.215236 -0.0143001 0.999898 215.571 3.18862)" stroke="#ECECEC"/>
</g>
<g filter="url(#filter26_b_847_14)">
<rect width="172.657" height="172.657" rx="24" transform="matrix(0.976562 0.215236 -0.0143001 0.999898 223.851 3.13699)" fill="#161616"/>
<rect x="0.481131" y="0.607567" width="171.657" height="171.657" rx="23.5" transform="matrix(0.976562 0.215236 -0.0143001 0.999898 223.871 3.0335)" stroke="#ECECEC"/>
</g>
<defs>
<filter id="filter0_b_847_14" x="-10.4351" y="-2.17514" width="198.398" height="228.579" filterUnits="userSpaceOnUse" color-interpolation-filters="sRGB">
<feFlood flood-opacity="0" result="BackgroundImageFix"/>
<feGaussianBlur in="BackgroundImageFix" stdDeviation="7"/>
<feComposite in2="SourceAlpha" operator="in" result="effect1_backgroundBlur_847_14"/>
<feBlend mode="normal" in="SourceGraphic" in2="effect1_backgroundBlur_847_14" result="shape"/>
</filter>
<filter id="filter1_b_847_14" x="0.238281" y="-2.3746" width="198.398" height="228.579" filterUnits="userSpaceOnUse" color-interpolation-filters="sRGB">
<feFlood flood-opacity="0" result="BackgroundImageFix"/>
<feGaussianBlur in="BackgroundImageFix" stdDeviation="7"/>
<feComposite in2="SourceAlpha" operator="in" result="effect1_backgroundBlur_847_14"/>
<feBlend mode="normal" in="SourceGraphic" in2="effect1_backgroundBlur_847_14" result="shape"/>
</filter>
<filter id="filter2_b_847_14" x="8.5376" y="-2.52969" width="198.398" height="228.579" filterUnits="userSpaceOnUse" color-interpolation-filters="sRGB">
<feFlood flood-opacity="0" result="BackgroundImageFix"/>
<feGaussianBlur in="BackgroundImageFix" stdDeviation="7"/>
<feComposite in2="SourceAlpha" operator="in" result="effect1_backgroundBlur_847_14"/>
<feBlend mode="normal" in="SourceGraphic" in2="effect1_backgroundBlur_847_14" result="shape"/>
</filter>
<filter id="filter3_b_847_14" x="16.8369" y="-2.68481" width="198.398" height="228.579" filterUnits="userSpaceOnUse" color-interpolation-filters="sRGB">
<feFlood flood-opacity="0" result="BackgroundImageFix"/>
<feGaussianBlur in="BackgroundImageFix" stdDeviation="7"/>
<feComposite in2="SourceAlpha" operator="in" result="effect1_backgroundBlur_847_14"/>
<feBlend mode="normal" in="SourceGraphic" in2="effect1_backgroundBlur_847_14" result="shape"/>
</filter>
<filter id="filter4_b_847_14" x="25.1362" y="-2.8399" width="198.398" height="228.579" filterUnits="userSpaceOnUse" color-interpolation-filters="sRGB">
<feFlood flood-opacity="0" result="BackgroundImageFix"/>
<feGaussianBlur in="BackgroundImageFix" stdDeviation="7"/>
<feComposite in2="SourceAlpha" operator="in" result="effect1_backgroundBlur_847_14"/>
<feBlend mode="normal" in="SourceGraphic" in2="effect1_backgroundBlur_847_14" result="shape"/>
</filter>
<filter id="filter5_b_847_14" x="33.4358" y="-2.99503" width="198.398" height="228.579" filterUnits="userSpaceOnUse" color-interpolation-filters="sRGB">
<feFlood flood-opacity="0" result="BackgroundImageFix"/>
<feGaussianBlur in="BackgroundImageFix" stdDeviation="7"/>
<feComposite in2="SourceAlpha" operator="in" result="effect1_backgroundBlur_847_14"/>
<feBlend mode="normal" in="SourceGraphic" in2="effect1_backgroundBlur_847_14" result="shape"/>
</filter>
<filter id="filter6_b_847_14" x="41.7351" y="-3.15012" width="198.398" height="228.579" filterUnits="userSpaceOnUse" color-interpolation-filters="sRGB">
<feFlood flood-opacity="0" result="BackgroundImageFix"/>
<feGaussianBlur in="BackgroundImageFix" stdDeviation="7"/>
<feComposite in2="SourceAlpha" operator="in" result="effect1_backgroundBlur_847_14"/>
<feBlend mode="normal" in="SourceGraphic" in2="effect1_backgroundBlur_847_14" result="shape"/>
</filter>
<filter id="filter7_b_847_14" x="50.0344" y="-3.30521" width="198.398" height="228.579" filterUnits="userSpaceOnUse" color-interpolation-filters="sRGB">
<feFlood flood-opacity="0" result="BackgroundImageFix"/>
<feGaussianBlur in="BackgroundImageFix" stdDeviation="7"/>
<feComposite in2="SourceAlpha" operator="in" result="effect1_backgroundBlur_847_14"/>
<feBlend mode="normal" in="SourceGraphic" in2="effect1_backgroundBlur_847_14" result="shape"/>
</filter>
<filter id="filter8_b_847_14" x="58.3337" y="-3.46033" width="198.398" height="228.579" filterUnits="userSpaceOnUse" color-interpolation-filters="sRGB">
<feFlood flood-opacity="0" result="BackgroundImageFix"/>
<feGaussianBlur in="BackgroundImageFix" stdDeviation="7"/>
<feComposite in2="SourceAlpha" operator="in" result="effect1_backgroundBlur_847_14"/>
<feBlend mode="normal" in="SourceGraphic" in2="effect1_backgroundBlur_847_14" result="shape"/>
</filter>
<filter id="filter9_b_847_14" x="66.6335" y="-3.61542" width="198.398" height="228.579" filterUnits="userSpaceOnUse" color-interpolation-filters="sRGB">
<feFlood flood-opacity="0" result="BackgroundImageFix"/>
<feGaussianBlur in="BackgroundImageFix" stdDeviation="7"/>
<feComposite in2="SourceAlpha" operator="in" result="effect1_backgroundBlur_847_14"/>
<feBlend mode="normal" in="SourceGraphic" in2="effect1_backgroundBlur_847_14" result="shape"/>
</filter>
<filter id="filter10_b_847_14" x="74.9326" y="-3.77051" width="198.398" height="228.579" filterUnits="userSpaceOnUse" color-interpolation-filters="sRGB">
<feFlood flood-opacity="0" result="BackgroundImageFix"/>
<feGaussianBlur in="BackgroundImageFix" stdDeviation="7"/>
<feComposite in2="SourceAlpha" operator="in" result="effect1_backgroundBlur_847_14"/>
<feBlend mode="normal" in="SourceGraphic" in2="effect1_backgroundBlur_847_14" result="shape"/>
</filter>
<filter id="filter11_b_847_14" x="83.2319" y="-3.92563" width="198.398" height="228.579" filterUnits="userSpaceOnUse" color-interpolation-filters="sRGB">
<feFlood flood-opacity="0" result="BackgroundImageFix"/>
<feGaussianBlur in="BackgroundImageFix" stdDeviation="7"/>
<feComposite in2="SourceAlpha" operator="in" result="effect1_backgroundBlur_847_14"/>
<feBlend mode="normal" in="SourceGraphic" in2="effect1_backgroundBlur_847_14" result="shape"/>
</filter>
<filter id="filter12_b_847_14" x="91.5312" y="-4.08072" width="198.398" height="228.579" filterUnits="userSpaceOnUse" color-interpolation-filters="sRGB">
<feFlood flood-opacity="0" result="BackgroundImageFix"/>
<feGaussianBlur in="BackgroundImageFix" stdDeviation="7"/>
<feComposite in2="SourceAlpha" operator="in" result="effect1_backgroundBlur_847_14"/>
<feBlend mode="normal" in="SourceGraphic" in2="effect1_backgroundBlur_847_14" result="shape"/>
</filter>
<filter id="filter13_b_847_14" x="99.8306" y="-4.23584" width="198.398" height="228.579" filterUnits="userSpaceOnUse" color-interpolation-filters="sRGB">
<feFlood flood-opacity="0" result="BackgroundImageFix"/>
<feGaussianBlur in="BackgroundImageFix" stdDeviation="7"/>
<feComposite in2="SourceAlpha" operator="in" result="effect1_backgroundBlur_847_14"/>
<feBlend mode="normal" in="SourceGraphic" in2="effect1_backgroundBlur_847_14" result="shape"/>
</filter>
<filter id="filter14_b_847_14" x="108.13" y="-4.39093" width="198.398" height="228.579" filterUnits="userSpaceOnUse" color-interpolation-filters="sRGB">
<feFlood flood-opacity="0" result="BackgroundImageFix"/>
<feGaussianBlur in="BackgroundImageFix" stdDeviation="7"/>
<feComposite in2="SourceAlpha" operator="in" result="effect1_backgroundBlur_847_14"/>
<feBlend mode="normal" in="SourceGraphic" in2="effect1_backgroundBlur_847_14" result="shape"/>
</filter>
<filter id="filter15_b_847_14" x="116.429" y="-4.54602" width="198.398" height="228.579" filterUnits="userSpaceOnUse" color-interpolation-filters="sRGB">
<feFlood flood-opacity="0" result="BackgroundImageFix"/>
<feGaussianBlur in="BackgroundImageFix" stdDeviation="7"/>
<feComposite in2="SourceAlpha" operator="in" result="effect1_backgroundBlur_847_14"/>
<feBlend mode="normal" in="SourceGraphic" in2="effect1_backgroundBlur_847_14" result="shape"/>
</filter>
<filter id="filter16_b_847_14" x="124.729" y="-4.70111" width="198.398" height="228.579" filterUnits="userSpaceOnUse" color-interpolation-filters="sRGB">
<feFlood flood-opacity="0" result="BackgroundImageFix"/>
<feGaussianBlur in="BackgroundImageFix" stdDeviation="7"/>
<feComposite in2="SourceAlpha" operator="in" result="effect1_backgroundBlur_847_14"/>
<feBlend mode="normal" in="SourceGraphic" in2="effect1_backgroundBlur_847_14" result="shape"/>
</filter>
<filter id="filter17_b_847_14" x="133.028" y="-4.85623" width="198.398" height="228.579" filterUnits="userSpaceOnUse" color-interpolation-filters="sRGB">
<feFlood flood-opacity="0" result="BackgroundImageFix"/>
<feGaussianBlur in="BackgroundImageFix" stdDeviation="7"/>
<feComposite in2="SourceAlpha" operator="in" result="effect1_backgroundBlur_847_14"/>
<feBlend mode="normal" in="SourceGraphic" in2="effect1_backgroundBlur_847_14" result="shape"/>
</filter>
<filter id="filter18_b_847_14" x="141.327" y="-5.01132" width="198.398" height="228.579" filterUnits="userSpaceOnUse" color-interpolation-filters="sRGB">
<feFlood flood-opacity="0" result="BackgroundImageFix"/>
<feGaussianBlur in="BackgroundImageFix" stdDeviation="7"/>
<feComposite in2="SourceAlpha" operator="in" result="effect1_backgroundBlur_847_14"/>
<feBlend mode="normal" in="SourceGraphic" in2="effect1_backgroundBlur_847_14" result="shape"/>
</filter>
<filter id="filter19_b_847_14" x="149.627" y="-5.16641" width="198.398" height="228.579" filterUnits="userSpaceOnUse" color-interpolation-filters="sRGB">
<feFlood flood-opacity="0" result="BackgroundImageFix"/>
<feGaussianBlur in="BackgroundImageFix" stdDeviation="7"/>
<feComposite in2="SourceAlpha" operator="in" result="effect1_backgroundBlur_847_14"/>
<feBlend mode="normal" in="SourceGraphic" in2="effect1_backgroundBlur_847_14" result="shape"/>
</filter>
<filter id="filter20_b_847_14" x="157.926" y="-5.32153" width="198.398" height="228.579" filterUnits="userSpaceOnUse" color-interpolation-filters="sRGB">
<feFlood flood-opacity="0" result="BackgroundImageFix"/>
<feGaussianBlur in="BackgroundImageFix" stdDeviation="7"/>
<feComposite in2="SourceAlpha" operator="in" result="effect1_backgroundBlur_847_14"/>
<feBlend mode="normal" in="SourceGraphic" in2="effect1_backgroundBlur_847_14" result="shape"/>
</filter>
<filter id="filter21_b_847_14" x="166.226" y="-5.47662" width="198.398" height="228.579" filterUnits="userSpaceOnUse" color-interpolation-filters="sRGB">
<feFlood flood-opacity="0" result="BackgroundImageFix"/>
<feGaussianBlur in="BackgroundImageFix" stdDeviation="7"/>
<feComposite in2="SourceAlpha" operator="in" result="effect1_backgroundBlur_847_14"/>
<feBlend mode="normal" in="SourceGraphic" in2="effect1_backgroundBlur_847_14" result="shape"/>
</filter>
<filter id="filter22_b_847_14" x="174.525" y="-5.63174" width="198.398" height="228.579" filterUnits="userSpaceOnUse" color-interpolation-filters="sRGB">
<feFlood flood-opacity="0" result="BackgroundImageFix"/>
<feGaussianBlur in="BackgroundImageFix" stdDeviation="7"/>
<feComposite in2="SourceAlpha" operator="in" result="effect1_backgroundBlur_847_14"/>
<feBlend mode="normal" in="SourceGraphic" in2="effect1_backgroundBlur_847_14" result="shape"/>
</filter>
<filter id="filter23_b_847_14" x="182.824" y="-5.78683" width="198.398" height="228.579" filterUnits="userSpaceOnUse" color-interpolation-filters="sRGB">
<feFlood flood-opacity="0" result="BackgroundImageFix"/>
<feGaussianBlur in="BackgroundImageFix" stdDeviation="7"/>
<feComposite in2="SourceAlpha" operator="in" result="effect1_backgroundBlur_847_14"/>
<feBlend mode="normal" in="SourceGraphic" in2="effect1_backgroundBlur_847_14" result="shape"/>
</filter>
<filter id="filter24_b_847_14" x="191.124" y="-5.94193" width="198.398" height="228.579" filterUnits="userSpaceOnUse" color-interpolation-filters="sRGB">
<feFlood flood-opacity="0" result="BackgroundImageFix"/>
<feGaussianBlur in="BackgroundImageFix" stdDeviation="7"/>
<feComposite in2="SourceAlpha" operator="in" result="effect1_backgroundBlur_847_14"/>
<feBlend mode="normal" in="SourceGraphic" in2="effect1_backgroundBlur_847_14" result="shape"/>
</filter>
<filter id="filter25_b_847_14" x="199.423" y="-6.09702" width="198.398" height="228.579" filterUnits="userSpaceOnUse" color-interpolation-filters="sRGB">
<feFlood flood-opacity="0" result="BackgroundImageFix"/>
<feGaussianBlur in="BackgroundImageFix" stdDeviation="7"/>
<feComposite in2="SourceAlpha" operator="in" result="effect1_backgroundBlur_847_14"/>
<feBlend mode="normal" in="SourceGraphic" in2="effect1_backgroundBlur_847_14" result="shape"/>
</filter>
<filter id="filter26_b_847_14" x="207.722" y="-6.25214" width="198.398" height="228.579" filterUnits="userSpaceOnUse" color-interpolation-filters="sRGB">
<feFlood flood-opacity="0" result="BackgroundImageFix"/>
<feGaussianBlur in="BackgroundImageFix" stdDeviation="7"/>
<feComposite in2="SourceAlpha" operator="in" result="effect1_backgroundBlur_847_14"/>
<feBlend mode="normal" in="SourceGraphic" in2="effect1_backgroundBlur_847_14" result="shape"/>
</filter>
</defs>
</svg>
