<svg width="28" height="28" viewBox="0 0 28 28" fill="none" xmlns="http://www.w3.org/2000/svg">
<path d="M12 1.15498C12.6081 0.803905 13.2978 0.61908 14 0.61908C14.7021 0.61908 15.3919 0.803905 16 1.15498L24.124 5.84498C24.732 6.19604 25.237 6.70098 25.5881 7.30904C25.9391 7.91709 26.124 8.60685 26.124 9.30898V18.691C26.124 19.3931 25.9391 20.0829 25.5881 20.6909C25.237 21.299 24.732 21.8039 24.124 22.155L16 26.845C15.3919 27.196 14.7021 27.3809 14 27.3809C13.2978 27.3809 12.6081 27.196 12 26.845L3.87598 22.155C3.26791 21.8039 2.76297 21.299 2.4119 20.6909C2.06083 20.0829 1.87599 19.3931 1.87598 18.691V9.30898C1.87599 8.60685 2.06083 7.91709 2.4119 7.30904C2.76297 6.70098 3.26791 6.19604 3.87598 5.84498L12 1.15498Z" fill="#F66DBC"/>
<path d="M17.94 18.396C18.14 19.126 17.343 19.658 16.745 19.259L14.022 17.466L11.298 19.259C10.7 19.658 9.90304 19.06 10.102 18.396L10.833 15.274L8.30904 13.214C7.71104 12.749 8.04304 11.819 8.77404 11.754L12.029 11.554L13.225 8.498C13.49 7.834 14.487 7.834 14.752 8.498L15.948 11.554M17.61 11.753V16.403M20 14.078H15.35" stroke="white"/>
</svg>
